<?xml version="1.0" encoding="utf-8"?>
<!-- Generator: Adobe Illustrator 16.0.0, SVG Export Plug-In . SVG Version: 6.00 Build 0)  -->
<!DOCTYPE svg PUBLIC "-//W3C//DTD SVG 1.1//EN" "http://www.w3.org/Graphics/SVG/1.1/DTD/svg11.dtd">
<svg version="1.1" xmlns="http://www.w3.org/2000/svg" xmlns:xlink="http://www.w3.org/1999/xlink" x="0px" y="0px" width="78px"
	 height="78px" viewBox="0 0 78 78" enable-background="new 0 0 78 78" xml:space="preserve">
<g id="Layer_1">
</g>
<g id="Layer_2_1_">
	<g>
		<defs>
			<circle id="SVGID_1_" cx="39" cy="39" r="39"/>
		</defs>
		<clipPath id="SVGID_2_">
			<use xlink:href="#SVGID_1_"  overflow="visible"/>
		</clipPath>
		<g id="Layer_1_1_" clip-path="url(#SVGID_2_)">
		</g>
		<g id="Layer_2" display="none" clip-path="url(#SVGID_2_)">
			<g display="inline">
				<g>
					<defs>
						<circle id="SVGID_3_" cx="106.565" cy="10.823" r="17.791"/>
					</defs>
					<clipPath id="SVGID_4_">
						<use xlink:href="#SVGID_3_"  overflow="visible"/>
					</clipPath>
					<g clip-path="url(#SVGID_4_)">
						<rect x="88.774" y="-7.024" fill="#D2AE36" width="35.707" height="35.707"/>
						<path fill="#885018" d="M114.077,4.111c0.12-1.494,0.195-2.754-0.313-4.154c-0.032-0.094-0.077-0.203-0.123-0.318
							c-0.006,0.004-0.01,0.008-0.015,0.011c0.772,1.854,0.383,3.839,0.288,5.778c-0.014,0.321,0,0.715,0.016,1.097
							c0.019,0.447,0.034,0.871,0,1.134c-0.135,1.038-0.37,1.308-0.438,1.364l-0.006,0.006l0,0c-0.061,0.052-1.644,1.15-1.644,1.808
							c0,0.63-0.048,1.367-0.197,1.888c-0.143,0.495-1.272,3.066-1.289,3.096l-0.104,0.348c0.022,0.01,0.042,0.02,0.064,0.031
							l0.106-0.352c0.053-0.098,1.414-2.498,1.559-3c0.151-0.526,0.178-1.348,0.178-1.985c0-0.626,1.152-1.545,1.168-1.558
							l0.104-0.08l0.145-0.123c0.095-0.08,0.294-0.4,0.427-1.435c0.036-0.268,0.018-0.695,0-1.147
							c-0.013-0.378-0.028-0.771-0.015-1.088C114.009,4.974,114.045,4.535,114.077,4.111z"/>
						<path fill="#341900" d="M90.987,16.164c2.752-2.554,2.854-3.332,6.375-3.381c2.261,1.775,7.734,4.313,12.052,5.91
							c1.991,0.735,3.737,1.271,4.812,1.438c2.531,0.693,3.784,8.552,3.784,8.552H94.92C94.92,28.683,89.922,18.005,90.987,16.164z"
							/>
						<path fill="#D58E62" d="M105.238-4.298l3.625-0.042c0,0,3.882,0.637,4.214,5.25C113.405,5.522,105.238-4.422,105.238-4.298z"
							/>
						<path fill="#D37E3E" d="M101.154-5.299c-3.714,0.712-6.091,3.303-5.232,9.711l2.056-2.236c0,0-0.032,2.457,0.324,2.243
							c0.087-0.051,1.659-2.243,1.803-2.873c0.625-2.759,0.744-4.524,2.557-5.244c2.971-1.178,6.562-0.334,6.353-0.608
							C108.858-4.512,106.645-6.354,101.154-5.299z"/>
						<path fill="#6A7575" d="M102.908,21.023c1.087,2.388-3.257,6.329-3.257,6.329l0.681,1.331h7.01c0,0-1.042-4.521-1.941-6.454
							C104.5,20.295,102.908,21.142,102.908,21.023z"/>
						<path fill="#EEA785" d="M95.665,5.3c0.733,3.776-0.685,7.938-0.685,7.938l-1.122,1.781l0.127,4.197l7.461,8.877
							c1.333,0.327,1.513-3.792,3.852-5.41l-2.409-14.842C102.889,7.842,97.077,5.685,95.665,5.3z"/>
						<path fill="#A16324" d="M111.046,13.656c0.16,0.618-0.071,2.494-0.437,4.153c-0.503,2.29-1.626,4.936-1.626,4.936l0.304-7.48
							L111.046,13.656z"/>
						
							<linearGradient id="SVGID_5_" gradientUnits="userSpaceOnUse" x1="362.5625" y1="-286.2231" x2="382.3012" y2="-286.2231" gradientTransform="matrix(1 0 0 -1 -267 -278)">
							<stop  offset="0" style="stop-color:#FBD4B1"/>
							<stop  offset="1" style="stop-color:#FDE8D4"/>
						</linearGradient>
						<path fill="url(#SVGID_5_)" d="M113.92,5.398c-0.032,0.696,0.079,1.742,0.017,2.233c-0.163,1.233-0.457,1.386-0.457,1.394
							c0,0-1.412,1.159-1.431,1.918c0,0.649,0,1.336-0.145,1.842c-0.145,0.505-1.545,3.016-1.545,3.016l-1.729,5.696l-3.798-0.108
							l-6.551-5.582L96.479,5.746c0.406-5.455,2.887-8.951,6.282-10.145c1.726-0.607,1.877-0.896,5.057-0.397
							c1.017,0.161,2.622,0.879,3.348,1.382c1.322,0.916,2.169,2.232,2.563,3.323C114.381,1.704,114.019,3.36,113.92,5.398z"/>
						<path fill="#C78367" d="M98.042,22.133c0.34,1.209,2.539,4.024,3.786,4.099c0.682,0.042,0.602-1.059,0.926-1.746
							c0.124-0.264,0.366-0.544,0.53-0.741c0.18-0.207-2.194-1.045-3.115-3.039l4.713,2.692l-1.038,1.266l-0.814,1.72l-0.831,1.758
							l-4.023-4.667C98.175,23.474,98.099,22.171,98.042,22.133z"/>
						<path fill="#FAD1B4" d="M110.139,7.159l-0.453,4.504l-0.11,0.686l0.251,0.564l0.823,0.384l-0.704,0.511l-0.7-0.026
							l-0.241,0.43l-7.865,2.111l-0.982-3.53l-1.038-6.677c3.392,5.419,2.061,6.113,7.665,4.497c0.482-1.068,0.53-1.407,0.424-1.554
							c-0.118-0.164-0.811-0.001-1.87,0.059c0.718-0.532,2.409-3.66,4.284-3.022c0.218,0.074,0.483-0.533,0.723-1.79
							C110.382,4.104,111.009,6.154,110.139,7.159z"/>
						<path fill="#CA896F" d="M111.781,10.2c-0.021,0-0.042-0.005-0.062-0.018c-0.049-0.032-0.063-0.098-0.028-0.147
							c0.002-0.004,0.26-0.4,0.054-0.634c-0.227-0.262-0.619-0.275-0.623-0.275c-0.061-0.002-0.104-0.051-0.104-0.11
							c0.002-0.058,0.05-0.104,0.108-0.104c0,0,0,0,0.002,0c0.021,0.001,0.491,0.018,0.778,0.35c0.312,0.357-0.021,0.87-0.038,0.892
							C111.848,10.184,111.816,10.2,111.781,10.2z"/>
						<path fill="#F7C3A0" d="M103.018,6.715c-0.024-0.075,0.027-0.245,0.104-0.267c0.074-0.023,0.152,0.019,0.177,0.093
							c0.273,0.89,1.756,1.077,2.312,1.147c0.158,0.019,0.223,0.029,0.268,0.045c0.446,0.159-0.843,0.229-1.818-0.074
							C103.508,7.489,103.187,7.238,103.018,6.715z"/>
						<path fill="#F4B997" d="M111.365,10.834c-0.01,0-0.022,0-0.03-0.003c-0.488-0.104-0.784-0.778-0.794-0.807
							c-0.032-0.072,0.002-0.155,0.074-0.187s0.156,0.002,0.187,0.074c0.066,0.157,0.306,0.58,0.592,0.641
							c0.078,0.017,0.127,0.093,0.11,0.169C111.488,10.788,111.43,10.834,111.365,10.834z"/>
						<path fill="#FDF0E1" d="M111.572,9.1c0.503,0.286,0.296,0.978-0.116,1.093c-0.417,0.116-0.73-0.464-0.73-0.464
							S111.257,9.053,111.572,9.1z"/>
						
							<linearGradient id="SVGID_6_" gradientUnits="userSpaceOnUse" x1="371.4746" y1="-286.7148" x2="375.7603" y2="-299.1613" gradientTransform="matrix(1 0 0 -1 -267 -278)">
							<stop  offset="0" style="stop-color:#EAB08F"/>
							<stop  offset="1" style="stop-color:#FACCB1"/>
						</linearGradient>
						<path fill="url(#SVGID_6_)" d="M106.964,11.013c-0.647,0.324-1.484,1.771-1.484,1.771l-2.511,1.958l-0.82,0.961l2.604,2.555
							l4.641-0.47l0.645-1.863l-1.042-2.028l0.989-0.051l0.776-0.615c0,0-0.416,0.104-0.75,0.155
							c-0.184,0.028-0.342,0.016-0.396,0.02c-0.36,0.028-1.287-1.078-2.148-1.003c-0.243,0.021-0.829,0.181-0.911,0.081
							c-0.201-0.25,0.264-1.15,0.716-1.43L106.964,11.013z"/>
						<path fill="#F7C3A0" d="M101.673,4.322c0.135,0.806,0.449,1.385,1.32,1.813c1.849,0.863,3.551,1.341,3.683,1.537
							c0.393,0.579-0.348,0.872-0.539,1.112c-0.029,0.187,0.375,0.236,1.62-0.39c0.879-0.391,1.462-0.794,1.688-0.781
							c0.543,0.029,0.879-1.173,0.879-1.173c0.222-0.428,0.072-0.835,0.012-0.748c-0.199,0.3-0.762,0.806-1.376,0.433
							c-0.488-0.302-1.591-1.191-2.997-1.76C104.699,3.851,103.162,3.747,101.673,4.322z"/>
						<path fill="#F7C6A9" d="M98.218,3.247l3.383-5.636c-0.931,2.799-0.67,5.2-0.646,5.493c-0.551,0.523-1.092,1.091-1.273,1.679
							c-0.86,2.761,1.607,5.801,2.072,6.804c0.057,3.013-0.48,7.813-0.48,7.813l-3.835-6.963
							C97.391,12.435,98.123,3.346,98.218,3.247z"/>
						<path fill="#E49272" d="M108.364,17.263c-0.411-0.135-1.531-0.255-1.714-0.334c-0.07-0.031-0.417-0.178-0.387-0.25
							c0.032-0.073,0.795,0.09,0.867,0.123c0.746,0.182,1.34,0.204,1.35,0.204c0.079,0,0.344,0.065,0.344,0.143
							C108.824,17.227,108.444,17.263,108.364,17.263z"/>
						<path fill="#E0A380" d="M106.954,7.859l-0.246,0.811l0.533-0.195c0,0,0.406-0.735,0.978-0.84
							c0.573-0.104,1.125-0.676,1.125-0.676c-1.505-1.884-4.116-3.227-4.317-2.545c0.28,0.138,2.183,1.341,2.014,1.529
							c-0.05,0.056-0.133,0.036-0.7-0.143c-0.237-0.074-0.953-0.154-1.684-0.176c-1.104-0.032-2.215,0.011-2.098,0.074
							c0.228,0.06,0.995,0.136,0.511,0.157c-1.522,0.063,3.357,1.438,3.069,1.659C106.131,7.547,106.934,7.696,106.954,7.859z"/>
						<path fill="#C27533" d="M108.456,13.472c-1.424-0.245-2.848,0.393-2.848,0.393s-2.3,0.736-3.036,1.08
							c-0.736,0.345-2.2,1.694-2.2,1.694l-2.122-1.985l-0.417,0.358c-0.684,0.586,1.471,4.798,2.636,6.221
							c1.621,1.976,4.305,2.835,6.918,2.773c1.1-0.572,1.644-1.124,1.868-2.063c0.038-0.158,0.057-0.466,0.087-0.62
							c0.139-0.695,0.239-1.221,0.469-2.07c0.068-0.252-0.04-1.565,0.08-1.732c0.199-0.275,0.229,1.147,0.613,0.627
							c0.334-0.45,0.21-1.79,0.262-2.085c0.047-0.295-0.784-2-1.029-2.049c-0.246-0.048-0.688-0.098-0.688-0.098
							S108.557,13.422,108.456,13.472L108.456,13.472z M103.705,16.383L103.705,16.383c0.642-0.309,1.625-0.897,1.625-0.897
							l2.854-0.288l0.396,0.251l0.664,0.148c0,0,0.465,1.129,0.101,1.521c-0.362,0.392-0.64,0.858-0.64,0.858l-0.31-0.817
							l-0.465-0.152l-1.087-0.163c-0.128,0.037-0.386,0.092-0.498,0.128C104.588,17.541,104.938,17.905,103.705,16.383z"/>
						
							<radialGradient id="SVGID_7_" cx="372.0928" cy="-284.8223" r="0.8753" gradientTransform="matrix(1 0 0 -1 -267 -278)" gradientUnits="userSpaceOnUse">
							<stop  offset="0" style="stop-color:#FFFFFF"/>
							<stop  offset="0.5" style="stop-color:#F9F5F3"/>
							<stop  offset="1" style="stop-color:#D9C2B6"/>
						</radialGradient>
						<path fill="url(#SVGID_7_)" d="M106.419,7.392c0.084-0.697-0.425-1.291-1.936-1.208c-0.368,0.02-0.471,0.053-0.515,0.157
							c-0.127,0.288,0.68,0.854,1.08,0.955C105.58,7.43,106.169,7.608,106.419,7.392z"/>
						
							<linearGradient id="SVGID_8_" gradientUnits="userSpaceOnUse" x1="381.9287" y1="-284.6841" x2="366.8417" y2="-303.3151" gradientTransform="matrix(1 0 0 -1 -267 -278)">
							<stop  offset="0" style="stop-color:#DC6854"/>
							<stop  offset="1" style="stop-color:#B83E6F"/>
						</linearGradient>
						<path fill="url(#SVGID_8_)" d="M105.322,15.666c0.264,0.059,0.772,0.006,1.319-0.079c0.69-0.106,1.37-0.263,1.419-0.225
							c0.106,0.081,0.39,0.358,0.39,0.358l0.541-0.094c0.18-0.028,0.171,0.816,0.184,0.869l0.059,0.318c0,0-0.226-0.35-0.381-0.436
							c-0.052-0.028-0.323,0.005-0.657-0.065c-0.64-0.136-1.491-0.413-1.491-0.413s-1.708,0.07-1.693-0.043
							C105.024,15.745,105.294,15.679,105.322,15.666z"/>
						<path fill="#F9CBAF" d="M111.777,5.928c-0.225-0.484-0.086-0.484-0.156-0.393c-0.495,0.652-1.074,3.141-1.074,3.141
							l2.187-0.354l1.018,0.145l-1.862-1.141C111.889,7.324,111.438,6.346,111.777,5.928z"/>
						<g>
							<path fill="#010000" d="M111.098,9.979c-0.235,0.078-0.543-0.392-0.543-0.392l0.048-0.717c0,0,0.347-0.099,0.914,0.161
								C111.673,9.446,111.498,9.845,111.098,9.979z"/>
							<path fill="#000003" d="M111.041,10.023c-0.239,0-0.505-0.399-0.517-0.417l-0.006-0.009l0.048-0.754l0.024-0.006
								c0.008-0.002,0.354-0.105,0.939,0.163l0.014,0.006l0.007,0.013c0.08,0.217,0.078,0.437-0.011,0.623
								c-0.082,0.174-0.235,0.306-0.433,0.371C111.086,10.019,111.065,10.023,111.041,10.023L111.041,10.023z M110.591,9.577
								L110.591,9.577c0.076,0.113,0.288,0.375,0.45,0.375c0.015,0,0.03-0.002,0.045-0.007c0.177-0.06,0.315-0.178,0.39-0.335
								c0.077-0.163,0.081-0.359,0.013-0.553c-0.463-0.208-0.769-0.174-0.854-0.158L110.591,9.577z"/>
						</g>
						
							<linearGradient id="SVGID_9_" gradientUnits="userSpaceOnUse" x1="374.6807" y1="-293.3979" x2="373.5681" y2="-294.7718" gradientTransform="matrix(1 0 0 -1 -267 -278)">
							<stop  offset="0" style="stop-color:#BF4B40"/>
							<stop  offset="1" style="stop-color:#A62E52"/>
						</linearGradient>
						<path fill="url(#SVGID_9_)" d="M105.035,15.851c0.183-0.297,0.205-0.141,0.644-0.127c0.354,0.012,1.143-0.059,1.376-0.087
							c0.41-0.05,0.577-0.104,0.03,0.194c0,0,0.253-0.034,0.492-0.109c0.237-0.073-0.076,0.229-0.076,0.229l0.368,0.018
							l-0.038,0.115c0,0,0.579-0.117,0.961-0.281c0.385-0.166-0.295,0.308-0.295,0.308l0.467-0.272l-0.153,0.248l0.175-0.121
							l-0.059,0.154l0.107-0.029l0.078,0.369C109.112,16.458,105.043,15.858,105.035,15.851z"/>
						<path fill="#C27533" d="M98.881,3.542c-0.784,3.641-0.404,6.498,0.37,8.791c0.58,1.713,1.41,3.093,1.917,3.844
							c0.272,0.399,0.451,0.623,0.451,0.623l-1.358,3.687c0,0-3.011-4.403-3.333-6.168c-0.114-0.637-0.507-1.142-0.458-2.446
							c0.084-2.252,0.858-4.613,1.027-6.519c0.053-0.594-0.396-0.84-0.376-1.414c0.006-0.18-2.308-0.773-1.936-1.6
							c0.155-0.343,0.133-5.147,4.229-6.967c0.96-0.336,4.673-0.795,4.305-0.702c-2.646,0.66-2.953,2.046-3.192,3.033
							C99.941,0.136,99.398-1.395,98.881,3.542z"/>
						<path fill="#A8796A" d="M109.456,13.799c0.306-0.021,0.742-0.059,0.742-0.059l-0.259,0.145
							C109.939,13.886,109.456,13.804,109.456,13.799z"/>
						<path fill="#D37E3E" d="M105.833-5.243c2.127,0.243-1.792,0.152-3.056,0.869c-1.265,0.718-0.426,0.829-0.426,0.829
							l-2.016,2.222l0.581-0.189c0,0-1.913,5.347-2.613,6.355c-0.308,0.443,0.036-1.977,0.662-4.689
							c-0.797,1.687-0.757,0.684-0.356-0.407c0.336-0.913,0.789-1.512,1.139-1.925c-0.653,0.458-1.277,1.472-1.213,1.292
							C99.71-4.069,103.707-5.485,105.833-5.243z"/>
						<path fill="#885018" d="M109.359,21.391c0,0-0.917,1.645-2.005,1.916c-1.085,0.272-2.26-0.905-2.26-0.905
							s-0.004,0.003-0.006,0.01c0.087,0.135,0.169,0.276,0.231,0.424c0.026,0.061-0.752-0.051-1.163-1.017
							c-0.124,0.411-0.559,0.709-2.077-2.857c0.329,2.591-0.694,0.974-1.254-0.472c-0.074-0.196-0.185-0.815-0.34-0.838
							c0,0,0.241,1.927-0.609,0.408c-0.368-0.653-0.56-1.637-0.778-2.263c-0.169,1.175-0.277-1.034-0.402-1.532
							c-0.256-0.252-0.241,0.431-0.252,0.768c0,0-0.346-2.97-0.384-2.696c-0.121,1.236,0.064,1.447-0.123,1.437
							c-0.27-0.879-0.376-3.637-0.213-4.682c-0.417,2.25-0.442,0.042-0.29-1.074c0.028,0.091-0.012-2.805-0.012-2.805l-0.179,1.135
							c-0.163,1.558-0.709,3.736-0.777,5.526c-0.048,1.305,0.347,1.81,0.461,2.447c0.066,0.368,0.25,0.848,0.497,1.379
							c0.752,2.675,2.01,4.21,3.01,5.43c1.619,1.978,4.425,3.438,7.04,3.376c0,0,1.281-0.78,1.583-1.917
							c0.019-0.038,0.214-0.302,0.338-1.015L109.359,21.391z"/>
						<path fill="#FDF0E1" d="M113.66,8.383c-0.014,0-0.027-0.002-0.042-0.007c-0.076-0.023-0.118-0.103-0.093-0.179
							c0.233-0.745,0.019-1.911,0.017-1.922c-0.002-0.011-0.002-0.021-0.002-0.031l0.139-4.274c0-0.017,0.068-1.492-0.551-2.228
							c-0.051-0.059-0.045-0.149,0.018-0.199c0.059-0.051,0.149-0.043,0.199,0.017c0.692,0.821,0.622,2.357,0.617,2.423
							l-0.137,4.256c0.026,0.153,0.216,1.272-0.03,2.044C113.777,8.344,113.721,8.383,113.66,8.383z"/>
						<path fill="#000003" d="M110.84,8.821c0.208,0,0.385,0.171,0.385,0.378c0.006,0.269-0.199,0.422-0.406,0.422
							c-0.205,0-0.34-0.158-0.34-0.366C110.479,9.049,110.633,8.821,110.84,8.821z"/>
						<path fill="#F29883" d="M108.939,17.197c-0.036,0-0.07-0.005-0.106-0.016l-0.419-0.13l-1.49-0.264
							c-0.186,0.002-0.473-0.068-0.626-0.087c-0.698-0.081-0.934-0.209-0.981-0.246c-0.157-0.118-0.362-0.411-0.243-0.568
							c0.112-0.15,0.494-0.03,0.649,0.07c0.074,0.029,0.505-0.099,0.732-0.071l0.562,0.155c0.027,0,0.058,0.002,0.084,0.008
							l1.475,0.31c0.012,0.002,0.022,0.006,0.032,0.009l0.437,0.136c0.188,0.058,0.294,0.257,0.233,0.445
							C109.231,17.099,109.09,17.197,108.939,17.197z"/>
						<path fill="#E3B08D" d="M110.384,15.001c0.418-0.747,1.247-1.732,1.462-2.078c0.073-0.119-0.112,0.29-0.112,0.29l-1.188,2.319
							C110.494,15.458,110.442,15.089,110.384,15.001z"/>
						<path fill="#43413B" d="M110.925,9.903c-0.034,0-0.072-0.003-0.112-0.01c-0.059-0.01-0.097-0.067-0.087-0.124
							c0.01-0.059,0.066-0.096,0.125-0.086c0.3,0.054,0.382-0.23,0.39-0.263c0.015-0.057,0.073-0.092,0.129-0.078
							c0.057,0.015,0.093,0.073,0.079,0.13C111.407,9.632,111.251,9.903,110.925,9.903z"/>
						<path fill="#A95F1F" d="M95.096,3.201c1.354,1.025,2.276,2,2.386,1.462c0.158-0.784-0.383-2.021,0.338-4.549
							c0.137-0.476-0.692,1.198-0.692,1.198s0.01-2.776,2.221-4.374c-0.938,0.524-1.297,1.607-1.543,2.572
							c-0.004-0.005,1.04-1.84,1.994-2.629c1.488-1.23,2.484-1.575,1.072-1.279c-0.938,0.197,0.893-1.033,3.323-0.94l-0.988-0.241
							l-2.372,0.353c-2.003,0.547-3.351,1.56-4.236,2.832C95.548-0.878,95.438,1.154,95.096,3.201z"/>
						<path fill="#F3B99B" d="M95.614,8.5c1.12,0.971,1.475-1.435,1.475-1.435c-0.73-1.535,0.759-1.248,0.384-2.271
							c-0.438-3.039-1.649-3.86-2.498-2.807c-0.215,0.268-0.264,0.497-0.384,0.987c-0.254,1.003-0.387,2.617,0.162,3.969
							C94.95,7.432,95.166,8.105,95.614,8.5z"/>
						<path fill="#CE9162" d="M109.15,6.874c-0.101,0-0.191-0.015-0.27-0.044c-0.187-0.071-0.769-0.489-1.64-1.119
							c-0.312-0.226-0.634-0.459-0.901-0.646c-0.352-0.247-0.728-0.431-0.786-0.458c-0.125-0.037-1.702-0.554-2.868-0.774
							c-0.109-0.02-0.14-0.104-0.034-0.151c0.213-0.095,0.579-0.143,0.945-0.123c-0.008-0.019-0.011-0.039-0.006-0.06
							c0.008-0.051,0.052-0.088,0.104-0.088l0,0c0.116,0,1.106,0.01,2.058,0.38c0.805,0.313,2.092,1.233,2.642,1.628
							c0.122,0.086,0.217,0.155,0.247,0.173c0.173,0.106,1.004,0.732,1.016,0.74c0.034,0.019-0.304-0.056-0.306-0.017
							c-0.002,0.039,0.821,0.212,0.784,0.229C110.118,6.556,109.561,6.874,109.15,6.874L109.15,6.874z M103.21,3.777L103.21,3.777
							c1.131,0.248,2.4,0.624,2.414,0.628c0.004,0.001,0.01,0.003,0.015,0.006c0.018,0.008,0.43,0.203,0.826,0.48
							c0.268,0.188,0.59,0.421,0.901,0.647c0.664,0.481,1.416,1.026,1.591,1.092c0.055,0.021,0.119,0.031,0.193,0.031
							c0.216,0-0.989-0.616-0.822-0.68c-0.356-0.209,0.338-0.123,0.201-0.207c-0.036-0.023-0.125-0.086-0.258-0.182
							c-0.543-0.389-1.814-1.298-2.597-1.603c-0.33-0.128-0.67-0.211-0.972-0.266c0.676,0.147,0.704,0.23,0.716,0.263
							c0.01,0.033,0.004,0.073-0.016,0.102c-0.017,0.021-0.049,0.047-0.104,0.047l0,0c-0.034,0-0.116,0-0.851-0.245
							c-0.275-0.055-0.543-0.094-0.776-0.113C103.516,3.765,103.357,3.765,103.21,3.777z"/>
						<path fill="#9D6C3E" d="M102.693,3.78c1.229,0.231,2.9,0.726,2.9,0.726s0.417,0.197,0.809,0.472
							c0.865,0.608,2.245,1.65,2.517,1.753c0.395,0.149,1.099-0.201,1.099-0.201s-1.141-0.219-1.213-0.263
							c-0.318-0.187,0.676,0.061,0.531-0.027c-0.178-0.11-2.642-1.967-3.623-2.348c-0.978-0.381-2.018-0.374-2.018-0.374
							s1.649,0.585,1.621,0.504c-0.017-0.053-0.885-0.288-1.634-0.35C103.255,3.637,102.887,3.695,102.693,3.78z"/>
						<path fill="#AA7656" d="M113.208,9.326c0.155-0.204-0.193,0.083-0.209,0.073c-0.043-0.026,0.064-0.098,0.078-0.144
							c0.002-0.013,0.575-0.497,0.38-0.751c-0.158-0.204-1.834-0.455-2.536-0.708c-0.036-0.012-0.063-0.044-0.068-0.083
							c-0.006-0.038,0.008-0.076,0.038-0.1c0.016-0.014,0.423-0.339,0.813-0.562c0.036-0.019,0.081-0.017,0.113,0.005
							c0.023,0.017,0.042,0.041,0.05,0.067l0.286-0.047c0.304-0.101-0.481,0.294-0.481,0.305c0,0.001,0.814-0.27,0.282,0.012
							c0.006,0,0.416-0.17,0.424-0.17c0.326,0,1.306,0.563,1.362,1.086c0.056,0.519-0.342,0.862-0.364,0.884
							c-0.021,0.019,0.159-0.218,0.131-0.218L113.208,9.326z M113.224,8.538L113.224,8.538c0.105,0.134,0.049,0.332,0.068,0.448
							c0.123-0.171,0.262-0.418,0.238-0.653c-0.045-0.396-0.819-0.874-1.057-0.874L113.224,8.538z"/>
						<path fill="#9D6C3E" d="M111.756,7.146c-0.389,0.219-0.848,0.607-0.848,0.607s2.29,0.353,2.525,0.658
							c0.237,0.303-0.254,0.873-0.254,0.873s0.505-0.49,0.455-0.962c-0.051-0.473-0.978-0.956-1.233-0.939
							c-0.252,0.017-1.187,0.265-1.187,0.265l0.828-0.437c-0.014-0.005-0.03-0.012-0.044-0.018l-0.459,0.15
							C111.54,7.343,111.808,7.181,111.756,7.146z"/>
						<path fill="#4D1800" d="M112.419,9.557c0.022-0.723-1.221-0.873-0.728-0.676c0.231,0.092,0.364,0.266,0.454,0.419
							c0.201,0.343,0.002,0.962-0.104,0.962c-0.026,0-0.108-0.067-0.131-0.083c-0.052-0.04-0.02-0.153,0.019-0.208
							c0.116-0.157,0.12-0.358,0.008-0.549c-0.161-0.275-0.66-0.64-1.364-0.546c-0.068,0.008-0.072,0.039-0.08-0.028
							c-0.01-0.066,0.038-0.128,0.104-0.136c0.013-0.001,0.024-0.003,0.036-0.003c-0.004-0.007-0.006-0.013-0.008-0.021
							c-0.006-0.039-0.012-0.207,0.026-0.213c0.557-0.102,1.211,0.146,1.569,0.456c0.215,0.185,0.277,0.428,0.27,0.659
							C112.488,9.684,112.417,9.65,112.419,9.557z"/>
						<path fill="#EFAF8C" d="M111.112,7.364c-0.013,0-0.024-0.002-0.034-0.005c-0.057-0.018-0.087-0.078-0.069-0.134
							c0.013-0.038,0.29-0.911,0.356-1.101c0.021-0.056,0.08-0.086,0.137-0.065c0.055,0.019,0.085,0.08,0.066,0.135
							c-0.066,0.188-0.352,1.086-0.354,1.095C111.198,7.335,111.156,7.364,111.112,7.364z"/>
						<path fill="#A8796A" d="M111.653,10.358c-0.385,0-0.95-0.403-1.074-0.615c-0.021-0.033-0.009-0.077,0.023-0.097
							c0.036-0.02,0.079-0.01,0.099,0.024c0.109,0.183,0.648,0.566,0.978,0.544c0.039-0.003,0.073,0.028,0.075,0.067
							c0.004,0.039-0.026,0.073-0.066,0.076C111.677,10.357,111.665,10.358,111.653,10.358z"/>
						<path fill="#4D1800" d="M109.264,16.979c0.036-0.57-0.723-0.55-1.099-0.593c-0.004,0-0.201-0.035-0.209-0.038l-0.542-0.187
							l-0.902-0.196c-0.404-0.041-1.034,0.05-1.395-0.015c-0.057-0.011-0.108-0.042-0.099-0.1c0.01-0.058,0.063-0.089,0.119-0.08
							c0.75,0.137,1.412-0.083,2.313,0.233l0.733,0.273l0.817,0.013c0.03,0.003,0.058,0.021,0.076,0.047
							c0.01,0.014,0.241,0.24,0.224,0.543L109.264,16.979z"/>
						<path fill="#A16324" d="M103.413,16.851c-0.012,0-0.023-0.004-0.032-0.012c-0.021-0.019-0.023-0.05-0.006-0.071l1.219-1.418
							c0.043-0.047,0.339-0.11,0.288-0.037c-0.209,0.295-0.619,0.728-0.672,0.878c-0.002,0.012-0.004,0.023-0.004,0.03
							c0.03-0.011,0.125-0.161,0.298-0.306c0.875-0.734,1.802-1.029,1.811-1.034c0.066-0.028,0.355-0.131,0.317-0.099
							c-0.72,0.528,0.539-0.057,0.55,0.004c0,0-1.823,0.861-0.514,0.358c0.986-0.38,0.99-0.596,1.055-0.676l0.01-0.014
							c0.018-0.021,0.048-0.027,0.07-0.01c0.022,0.017,0.026,0.047,0.01,0.07c-0.002,0.002-0.006,0.01-0.018,0.024l-0.554,0.713
							c0.326-0.11,1.089-0.453,1.125-1.242c0-0.027,0.024-0.05,0.052-0.046c0.03,0.001,0.049,0.025,0.049,0.052
							c-0.034,0.736-0.712,1.221-1.372,1.383c-0.061,0.015-0.199,0.026-0.169-0.014l0.437-0.453
							c-0.239,0.176-0.482,0.33-0.966,0.515c-0.33,0.127-1.064,0.248-1.112,0.164c-0.05-0.087,0.56-0.304,0.738-0.476
							c-0.35,0.181-0.926,0.508-1.473,0.967c-0.277,0.234-0.539,0.309-0.591,0.261c-0.049-0.043,0.154-0.223,0.261-0.424
							l-0.771,0.895C103.441,16.845,103.428,16.851,103.413,16.851z"/>
						<path fill="#6A7575" d="M94.779,13.453c-0.239,1.273,0.425,2.82,1.277,4.116c0.769,1.169,1.692,2.351,1.692,2.351l0.604,3.167
							l4.743,5.596l-9.871-0.016L91.97,16.251C91.963,16.189,94.007,13.72,94.779,13.453z"/>
						<path fill="#9D6C3E" d="M103.09,4.357c-0.009-0.001-1.89-0.14-0.873-0.241c0.268-0.019,0.15-0.058,0.257-0.059
							c-0.012-0.002-0.028-0.005-0.04-0.007c-0.059-0.009-0.183-0.037-0.175-0.095c0.026-0.144,2.488,0.06,2.442,0.321
							c-0.011,0.057-0.406,0.061-0.463,0.053c-0.008-0.001-0.813-0.131-1.511-0.1C102.728,4.23,103.483,4.38,103.09,4.357z"/>
						<path fill="#F9CBAF" d="M101.742,4.616c0.025,1.321,2.088,0.687,3.751,0.95c1.664,0.264-0.211-0.66-1.374-0.898
							C102.957,4.43,101.742,4.616,101.742,4.616z"/>
						<path fill="#EFAF8C" d="M106.924,11.062l0.294,0.08c0.3-0.011,1.204,0.917,1.204,0.917s0.057-0.476,0-0.575
							C108.366,11.385,107.469,10.741,106.924,11.062z"/>
						<path fill="#7A9A8C" d="M94.538,13.934c-0.213,2.414,3.249,5.92,3.249,6.379c0,0.46,0.187,2.377,0.187,2.377l3.45,4.598
							l0.859,1.395l-1.338-0.042l-3.048-5.799l-0.587-2.759l-0.982,0.622l-0.416,1.984l-1.495-4.618l-0.633-3.26
							C93.784,14.812,94.462,13.86,94.538,13.934z"/>
						<path fill="#CA896F" d="M106.425,7.373c0.021-0.145,0.004-0.759-0.676-0.975c-0.875-0.279-1.896-0.069-1.907-0.068
							c-0.057,0.007-0.11-0.036-0.116-0.094c-0.007-0.059,0.036-0.111,0.094-0.118c0.045-0.006,1.106-0.12,2.028,0.173
							c0.657,0.209,0.839,0.689,0.79,1.074c0.009,0.02,0.032,0.068,0.104,0.181c0.024,0.037,0.045,0.068,0.028,0.116
							C106.626,7.489,106.527,7.472,106.425,7.373z"/>
						<g>
							<path fill="#010000" d="M104.343,6.042l-0.022,0.025c-0.173,0.199-0.207,0.452-0.137,0.67
								c0.093,0.296,0.376,0.535,0.729,0.549c0.609,0.024,0.907-0.434,0.837-0.938C105.679,5.845,104.343,6.042,104.343,6.042z"/>
							<path fill="#000003" d="M104.958,7.323L104.958,7.323c-0.016,0-0.032,0-0.048-0.001c-0.353-0.014-0.658-0.245-0.763-0.574
								c-0.076-0.246-0.022-0.509,0.145-0.705l0.032-0.034l0.013-0.002c0.004,0,0.264-0.039,0.559-0.039
								c0.548,0,0.855,0.13,0.89,0.375c0.036,0.273-0.03,0.533-0.189,0.714C105.447,7.231,105.224,7.323,104.958,7.323
								L104.958,7.323z M104.358,6.076L104.358,6.076l-0.012,0.015c-0.15,0.175-0.199,0.413-0.131,0.635
								c0.095,0.301,0.376,0.512,0.696,0.525c0.016,0,0.03,0,0.046,0l0,0c0.244,0,0.447-0.083,0.584-0.24
								c0.143-0.165,0.207-0.405,0.171-0.658c-0.036-0.259-0.465-0.313-0.817-0.313C104.643,6.04,104.415,6.068,104.358,6.076z"/>
						</g>
						<path fill="#4D1800" d="M102.196,22.422c-1.112-0.66-1.814-1.336-2.406-2.779c-0.084-0.015-0.156-0.134-0.235-0.268
							c-0.23-0.39-0.535-1.067-0.811-1.72c0.013,0.185-0.036,0.207-0.076,0.224c-0.121,0.052-0.217-0.049-0.45-0.471
							c-0.233-0.417-0.398-0.956-0.523-1.5c-0.034-0.027-0.074-0.107-0.157-0.289c-0.054-0.116-0.129-0.279-0.231-0.499
							c-0.277-0.597-0.399-1.246-0.442-1.851c-0.044-0.001-0.082-0.03-0.097-0.072c-0.025-0.072-0.575-1.77,0.171-3.4
							c0.024-0.053,0.089-0.077,0.144-0.052c0.052,0.025,0.076,0.088,0.052,0.141c-0.31,0.672-0.382,1.367-0.366,1.94
							c0.024-0.419,0.077-0.806,0.184-0.943c0.064-0.082,0.127-0.071,0.159-0.057c0.101,0.041,0.092,0.122,0.046,0.51
							c-0.068,0.581-0.197,1.642,0.024,2.708c-0.013-0.16-0.009-0.308,0.018-0.433c0.026-0.116,0.057-0.265,0.177-0.257
							c0.135,0.006,0.151,0.129,0.244,0.812c0.116,0.851,0.306,2.277,0.784,3.14c0.04,0.071,0.074,0.127,0.103,0.175
							c-0.076-0.35-0.266-0.984-0.459-1.561c-0.018-0.054,0.011-0.114,0.066-0.134c0.053-0.02,0.113,0.009,0.133,0.063
							c0.011,0.021,0.646,1.688,1.167,2.786c-0.116-0.34-0.187-0.577-0.199-0.609c-0.014-0.055,0.017-0.113,0.068-0.132
							c0.055-0.018,0.115,0.009,0.135,0.062c0.294,0.754,0.431,1.16,0.483,1.383c0.661,1.651,0.625,1.313,0.116-0.102
							c-0.076-0.227,1.034,1.337,2.114,2.5C102.094,21.965,102.116,22.204,102.196,22.422z"/>
						<circle fill="#000003" cx="104.878" cy="6.54" r="0.427"/>
						<path fill="#43413B" d="M104.962,7.233c-0.002,0-0.004,0-0.006,0c-0.063,0-0.112-0.051-0.11-0.112
							c0-0.061,0.05-0.111,0.11-0.111c0.002,0,0.004,0,0.006,0c0.402,0,0.461-0.408,0.465-0.426
							c0.006-0.061,0.063-0.104,0.123-0.096c0.063,0.009,0.104,0.065,0.095,0.126C105.616,6.828,105.438,7.233,104.962,7.233z"/>
						<path fill="#FFFFFF" d="M105.781,6.984c-0.013-0.002-0.022-0.006-0.032-0.011l-0.231-0.116
							c-0.063-0.031-0.099-0.104-0.08-0.163c0.016-0.059,0.08-0.081,0.143-0.05l0.233,0.116c0.063,0.031,0.099,0.104,0.078,0.163
							C105.88,6.972,105.833,6.996,105.781,6.984z"/>
						
							<radialGradient id="SVGID_10_" cx="378.9414" cy="-289.4678" r="0.9266" gradientTransform="matrix(1 0 0 -1 -267 -278)" gradientUnits="userSpaceOnUse">
							<stop  offset="0" style="stop-color:#FDE8D4"/>
							<stop  offset="0.4762" style="stop-color:#FDEEDF"/>
							<stop  offset="1" style="stop-color:#FDF2E5"/>
						</radialGradient>
						<path fill="url(#SVGID_10_)" d="M111.657,12.63c0.066-0.232,0.088-0.564,0.116-0.918c0.043-0.584,0.089-1.188,0.334-1.483
							c0.038-0.045,0.064-0.05,0.108-0.013c0.045,0.039,0.009,0.122-0.029,0.167c-0.201,0.243-0.174,0.783-0.214,1.308
							C111.895,12.757,111.583,12.891,111.657,12.63z"/>
						<path fill="#BA856E" d="M109.012,13.883l0.165-0.181c0.022-0.023,0.052-0.034,0.084-0.034c0.005,0,0.578,0.019,0.727,0.019
							c0.125-0.022,0.654-0.507,0.708-0.685c0.038-0.124-0.04-1.035-0.139-1.847c-0.006-0.094-0.103-2.159-0.103-2.595
							c0-0.471,0.228-0.845,0.569-1.409c0.028-0.051,0.097-0.067,0.145-0.037c0.053,0.03,0.068,0.096,0.036,0.146
							c-0.321,0.534-0.537,0.887-0.537,1.299c0,0.431,0.101,2.557,0.101,2.578c0.036,0.275,0.201,1.698,0.131,1.927
							c-0.07,0.237-0.706,0.742-0.923,0.742c-0.129,0-0.537,0.036-0.683,0.031l-0.116,0.15
							C109.082,14.089,108.915,13.987,109.012,13.883z"/>
						
							<linearGradient id="SVGID_11_" gradientUnits="userSpaceOnUse" x1="377.374" y1="-284.0073" x2="377.518" y2="-292.2549" gradientTransform="matrix(1 0 0 -1 -267 -278)">
							<stop  offset="0" style="stop-color:#FDE8D4"/>
							<stop  offset="1" style="stop-color:#FDF2E5"/>
						</linearGradient>
						<path fill="url(#SVGID_11_)" d="M110.08,12.759l0.143-2.11l0.083-2.318c0-0.009,0.002-0.02,0.002-0.029l0.217-1.081
							c0.017-0.077,0.091-0.126,0.169-0.111c0.078,0.016,0.127,0.09,0.11,0.168l-0.213,1.066v0.333v2.211l0.159,2.035
							c0.004,0.079-0.161,0.226-0.239,0.229C110.43,13.157,110.082,12.835,110.08,12.759z"/>
						<path fill="#FFFFFF" d="M111.355,9.545c-0.089-0.102,0.084-0.198,0.171-0.098c0.197,0.215,0.241,0.316,0.068,0.286
							C111.585,9.756,111.397,9.597,111.355,9.545z"/>
						<path fill="#F3CFBA" d="M107.451,13.271c-0.127,0-0.238-0.013-0.296-0.023c-0.077-0.014-0.127-0.087-0.115-0.166
							c0.015-0.077,0.089-0.129,0.165-0.114c0.149,0.025,0.444,0.032,0.607-0.039c0.072-0.032,0.157,0.003,0.188,0.076
							c0.032,0.071-0.002,0.155-0.074,0.187C107.782,13.253,107.605,13.271,107.451,13.271z"/>
						<path fill="#F9C8A8" d="M109.021,5.25c-0.07,0-0.131-0.051-0.141-0.122c-0.002-0.008-0.143-0.909-0.596-1.645
							c-0.04-0.066-0.018-0.154,0.049-0.195c0.068-0.042,0.154-0.02,0.197,0.047c0.482,0.786,0.625,1.714,0.631,1.751
							c0.011,0.078-0.04,0.15-0.12,0.162C109.034,5.25,109.027,5.25,109.021,5.25z"/>
						<path fill="#F9C8A8" d="M109.338,4.953c-0.059,0-0.113-0.036-0.135-0.092c-0.153-0.404-0.328-0.776-0.332-0.779
							c-0.032-0.071-0.002-0.156,0.068-0.189c0.072-0.034,0.157-0.004,0.191,0.067c0.008,0.016,0.181,0.386,0.34,0.8
							c0.028,0.074-0.011,0.157-0.085,0.184C109.37,4.95,109.354,4.953,109.338,4.953z"/>
						<path fill="#FACFB5" d="M112.172,4.014c-0.185-0.082-1.469-0.598-1.501-0.633c-0.02-0.023-1.965-2.206-3.912-2.033
							c-0.22,0.033-0.057-0.096,0.148-0.127c1.714-0.261,3.678,1.734,3.913,1.982l1.342,0.666c0.052,0.023,0.458,0.122,0.479,0.15
							C112.715,4.127,112.327,4.082,112.172,4.014z"/>
						<path fill="#FDF0E1" d="M111.38,3.455c-0.045,0-0.745-0.329-0.772-0.368c-0.011-0.014-1.175-1.452-2.354-1.738
							c-0.154-0.038-0.042-0.143,0.125-0.104c1.281,0.311,2.279,1.554,2.323,1.614C110.828,3.033,111.407,3.455,111.38,3.455z"/>
						<path fill="#F8B45D" d="M110.444,17.229c-0.015,0-0.03-0.004-0.043-0.014c-0.032-0.024-0.038-0.068-0.016-0.101
							c0.123-0.162,0.187-0.523,0.222-0.807c-0.005,0.004-0.005,0.008-0.009,0.013c-0.021,0.146-0.064,0.281-0.133,0.396
							c-0.09,0.157-0.122,0.215-0.19,0.178c-0.093-0.047,0.233-0.735,0.203-1.158c-0.101,0.292-0.25,0.571-0.276,0.621
							c-0.036,0.062-0.066-0.042-0.025-0.119c0.006-0.01,0.39-0.95-0.095-1.636c-0.055-0.077,0.018-0.069,0.076,0.014
							c0.188,0.264,0.25,0.554,0.254,0.817c0.008-0.042,0.012-0.082,0.012-0.118c-0.008-0.042-0.028-0.202-0.036-0.245
							c-0.059-0.276,0.283,0.53,0.169,1.194c0.008-0.013,0.074-0.463,0.08-0.476c0.036-0.078,0.059,0.104,0.057,0.184
							c-0.002,0.039,0.046,0.907-0.193,1.227C110.488,17.22,110.466,17.229,110.444,17.229z"/>
						<path fill="#E7AA79" d="M101.536-3.417c-2.174,1.449-2.259,3.29-2.259,3.29s-0.38,0.992,0.306,0
							c0.685-0.992-1.044,1.41-1.39,3.503c0.657-1.264,0.4-0.875,0.4-0.875l-0.421,2.402c0.742-2.283,2.03-2.672,2.519-4.697
							c0.353-1.455,0.793-2.936,1.545-3.571c0.954-0.793-0.577,0.129-0.577,0.129c0.389-0.407,1.48-0.949,2.563-1.357
							c0.228-0.085-0.623-0.075-0.357-0.134c1.667-0.366,3.232-0.263,4.791,0.129c0.119,0.031-0.543-0.213-0.418-0.18
							c-4.81-1.341-6.445,0.455-7.622,1.578C100.573-3.158,101.253-3.393,101.536-3.417z"/>
						<path fill="#885018" d="M101.925,17.192l0.642-0.451c-1.346,0.687,1.022-0.858,0.911-0.858l0.004-0.005
							c0.07-0.004,0.142-0.012,0.212-0.028c0.032,0.045,0.025,0.105-0.017,0.144c-0.006,0.005-0.034,0.028-0.082,0.068l-0.744,0.626
							c0.34-0.236,0.712-0.534,1.027-0.891c0.213-0.078,0.393-0.202,0.545-0.367c-0.809,1.286-0.938,1.237-1.012,1.27
							C103.337,16.734,101.818,17.282,101.925,17.192z"/>
						<path fill="#CD9279" d="M108.118,12.944c-0.054-0.033-0.116-0.071-0.13-0.079c-0.831-0.359-0.608-0.004-0.643,0.094
							c-0.016,0.047-0.649,0.21-0.561-0.047c0.05-0.14,0.183-0.24,0.327-0.304c0.3-0.132,0.614-0.107,0.869,0.003
							c0.026,0.011,0.161,0.095,0.248,0.149c0.161,0.098,0.531,0.334,0.702,0.393C109.063,13.199,108.996,13.484,108.118,12.944z"/>
						<path fill="#4D1800" d="M107.049,12.962c0.068-0.489,0.845-0.375,0.845-0.375l0.672,0.408
							c0.752,0.531-0.214-0.059-0.475,0.006C107.843,13.062,107.366,13.128,107.049,12.962z"/>
						<path fill="#E6A571" d="M107.151,4.708c-0.009,0-0.017-0.001-0.022-0.005c-0.654-0.317-1.317-0.488-1.73-0.573l-0.418-0.072
							c-0.026-0.005-0.044-0.031-0.04-0.058c0.004-0.026,0.028-0.046,0.056-0.042c0.005,0,0.163,0.02,0.419,0.072l0.052,0.01
							c-0.496-0.115-1.06-0.216-1.466-0.21c-0.03,0-0.053-0.021-0.053-0.049c0-0.028,0.022-0.051,0.051-0.051
							c0.909-0.013,2.528,0.485,2.597,0.506c0.026,0.008,0.042,0.034,0.036,0.06c-0.006,0.025-0.032,0.042-0.059,0.037l-0.139-0.024
							c0.237,0.083,0.489,0.182,0.738,0.304c0.024,0.012,0.034,0.042,0.024,0.067C107.188,4.697,107.169,4.708,107.151,4.708z"/>
						<path fill="#F4B997" d="M103.422,6.293c-0.021-0.076,0.082-0.09,0.158-0.111c0.077-0.02,0.163,0.006,0.184,0.082
							c0.004,0.009,0.175,0.532,0.537,0.753c0.068,0.041,0.771,0.362,1.221,0.516C104.808,7.539,103.618,7.031,103.422,6.293z"/>
						<path fill="#FFFFFF" d="M111.517,10.621c-0.055,0-0.103-0.042-0.107-0.099c-0.004-0.059,0.041-0.11,0.099-0.115l0.199-0.016
							c0.017-0.046,0.106-0.123,0.155-0.229c0.024-0.054,0.03,0.003,0.082,0.029c0.055,0.024,0.075,0.014,0.053,0.068
							c-0.093,0.2-0.106,0.255-0.108,0.256c-0.011,0.045-0.049,0.08-0.095,0.083l-0.268,0.021
							C111.522,10.621,111.521,10.621,111.517,10.621z"/>
						<path fill="#4D1800" d="M113.387,8.764c-0.023,0-0.044-0.017-0.05-0.042c-0.03-0.181-0.326-0.363-0.437-0.418
							c-0.024-0.012-0.034-0.039-0.026-0.062c-0.285-0.06-0.63-0.108-0.949-0.153c-0.41-0.058-0.801-0.113-0.996-0.182
							c-0.026-0.009-0.04-0.038-0.03-0.064c0.01-0.025,0.038-0.039,0.064-0.03c0.186,0.065,0.569,0.12,0.976,0.177
							c0.565,0.08,1.205,0.17,1.48,0.317c0.117,0.061,0.175,0.096,0.151,0.151c-0.017,0.035-0.028,0.061-0.313-0.029
							c0.087,0.079,0.161,0.174,0.18,0.276c0.006,0.028-0.015,0.055-0.04,0.059C113.393,8.764,113.391,8.764,113.387,8.764z"/>
						<path fill="#4D1800" d="M113.409,9c-0.026,0-0.048-0.019-0.051-0.044c-0.023-0.194-0.211-0.335-0.213-0.336
							c-0.022-0.017-0.026-0.048-0.01-0.071c0.016-0.022,0.048-0.026,0.07-0.011c0.008,0.007,0.224,0.169,0.253,0.406
							c0.005,0.027-0.016,0.052-0.044,0.056C113.413,9,113.409,9,113.409,9z"/>
						<path fill="#4D1800" d="M109.898,6.57c0.27-0.063-0.613,0.32-1.154,0.157c-0.022-0.013-0.499-0.276-0.495-0.274
							C108.249,6.452,109.145,6.748,109.898,6.57z"/>
						<path fill="#E09D81" d="M95.967,3.126c-0.36,0.897,0.243,1.056,0.201,1.108c-1.108,0.843-0.654,1.729-0.596,1.941
							c0.061,0.224,0.63,0.296,0.63,0.296l0.442,0.735c0,0-0.004-1.067,0.163-1.411c0.557-1.149,0.002-2.838-1.064-3.524
							c-1.076-0.69-1.066,2.382-1.066,2.382S95.269,2.203,95.967,3.126z"/>
						<path fill="#4D1800" d="M97.92,17.116c-0.022,0-0.043-0.017-0.049-0.04l-0.026-0.124c-0.062-0.271-0.261-0.988-0.794-2.105
							c-0.277-0.588-0.427-1.184-0.505-1.688c-0.006,0.002-0.013,0.003-0.019,0.004c-0.056,0.004-0.076,0.006-0.143-0.519
							c-0.093-0.731,0.038-1.705,0.188-2.477c-0.011,0.01-0.026,0.013-0.043,0.01c-0.025-0.005-0.042-0.03-0.038-0.057
							c0.021-0.114,0.453-2.791,0.738-3.488c0.01-0.026,0.04-0.038,0.066-0.028c0.026,0.011,0.038,0.041,0.028,0.065
							c-0.189,0.458-0.45,1.836-0.604,2.71l0.148-0.486c0.009-0.026,0.039-0.042,0.063-0.033c0.026,0.007,0.043,0.036,0.034,0.061
							c-0.006,0.023-0.657,2.318-0.48,3.708c0,0.013,0.002,0.024,0.004,0.035c-0.04-0.49-0.016-0.814-0.014-0.822
							c0.002-0.026,0.021-0.045,0.05-0.045l0,0c0.026,0,0.049,0.021,0.049,0.047c0.018,0.432,0.023,0.721,0.023,0.915
							c0.057,0.56,0.197,1.307,0.546,2.041c0.213,0.446,0.372,0.828,0.49,1.142l-0.154-0.733c-0.007-0.027,0.012-0.054,0.038-0.06
							c0.028-0.006,0.054,0.012,0.061,0.04l0.361,1.712c0.022,0.095,0.03,0.146,0.032,0.154c0.004,0.026-0.014,0.052-0.04,0.057
							C97.928,17.116,97.924,17.116,97.92,17.116z"/>
						<path fill="#B16A2C" d="M106.753,16.885c0.86-0.021,1.158,0.154,1.158,0.154c1.022,1.814-1.273,4.739-1.277,4.561
							c-0.026-0.842-0.396-2.572-0.396-2.572c-0.074,0.297-0.023,0.569-0.122,0.94C106.115,19.967,105.447,17.543,106.753,16.885z"
							/>
						<path fill="#885018" d="M106.173,20.176c-0.082-0.629,0.024-2.475,0.831-3.164c0.074-0.063,0.125,0.012,0.064,0.064
							c-0.704,0.6-0.837,2.587-0.744,3.288C106.324,20.367,106.207,20.401,106.173,20.176z"/>
						<path fill="#885018" d="M106.563,21.118c-0.03,0-0.057-0.019-0.066-0.05c-0.014-0.056-0.364-1.383-0.054-2.658
							c0.01-0.039,0.048-0.063,0.086-0.055c0.038,0.009,0.063,0.046,0.053,0.085c-0.302,1.238,0.05,2.575,0.052,2.587
							c0.011,0.038-0.012,0.077-0.048,0.088C106.578,21.118,106.571,21.118,106.563,21.118z"/>
						<path fill="#A36B56" d="M96.643,6.923c-0.153-0.771-0.296-0.952,0.046-1.471l0.068-0.108c0.076-0.642-0.454-2.516-1.074-2.82
							c-0.152-0.074-0.281-0.045-0.41,0.091c-0.04,0.043-0.108,0.045-0.153,0.004c-0.042-0.041-0.046-0.11-0.004-0.153
							c0.193-0.206,0.423-0.252,0.662-0.137c0.724,0.353,1.3,2.364,1.192,3.07c-0.004,0.015-0.008,0.03-0.016,0.043l-0.112,0.2
							C96.407,6.173,96.769,7.556,96.643,6.923z"/>
						<path fill="#E7AA79" d="M98.529,9.875c-0.032,0-0.063-0.023-0.068-0.057c-0.11-0.543-0.131-1.254-0.115-1.89
							c-0.044,0.15-0.078,0.148-0.11,0.147c-0.086-0.004-0.097-0.097-0.101-0.341c-0.01-0.546,0.125-1.424,0.26-2.159L98.146,6.35
							c-0.01,0.035-0.046,0.056-0.082,0.048c-0.036-0.008-0.061-0.042-0.055-0.079c0-0.017,0.208-1.739,0.905-3.015
							c0.021-0.035,0.064-0.047,0.099-0.029c0.036,0.019,0.049,0.062,0.028,0.096C98.73,3.94,98.52,4.599,98.378,5.151l0.282-0.88
							c0.012-0.036,0.05-0.057,0.086-0.046c0.036,0.01,0.059,0.046,0.051,0.084c-0.004,0.022-0.479,2.123-0.52,3.235
							c0.053-0.311,0.115-0.754,0.163-1.17c0.004-0.04,0.04-0.066,0.079-0.062c0.038,0.004,0.066,0.04,0.062,0.078
							C98.579,6.411,98.353,8.571,98.6,9.79c0.008,0.039-0.019,0.076-0.057,0.083C98.539,9.875,98.535,9.875,98.529,9.875z"/>
						<path fill="#4D1800" d="M99.026,19.386c0.023-0.011,0.034-0.041,0.023-0.065c-0.006-0.015-0.591-1.407-0.376-2.458
							c-0.02,0.755,0.121,2.127,1.116,3.572c0.034,0.047,0.064,0.094,0.095,0.138c0.123,0.097,0.67,0.692,0.789,0.798
							c-0.342-0.591-1.247-1.993-1.354-2.601c-0.006-0.027-0.032-0.046-0.058-0.041c-0.028,0.004-0.047,0.03-0.043,0.058
							c0.075,0.424,0.326,0.987,0.59,1.493c-1.183-1.777-1.064-3.414-0.998-3.88c0.004-0.029,0.011-0.074-0.036-0.083
							c-0.048-0.011-0.059,0.03-0.07,0.068c-0.01,0.042-0.034,0.122-0.074,0.247c-0.199,0.616-0.083,1.377,0.064,1.939
							c-0.396-0.918-0.939-2.474-0.592-3.446c0.01-0.027-0.004-0.055-0.03-0.065s-0.054,0.004-0.063,0.03
							c-0.535,1.483,0.888,4.159,0.95,4.272C98.972,19.388,99.002,19.398,99.026,19.386z"/>
						<path fill="#FBD8C7" d="M108.909,17.221c-0.205,0-0.469-0.103-0.523-0.123l-1.145-0.273l-0.991-0.097
							c-0.121-0.012-0.592-0.217-0.507-0.208l1.522,0.165l1.159,0.275c0.004,0.001,0.006,0.002,0.01,0.003
							c0.177,0.07,0.469,0.148,0.567,0.1c0.036-0.018,0.08-0.004,0.097,0.031c0.018,0.035,0.004,0.079-0.032,0.096
							C109.023,17.212,108.97,17.221,108.909,17.221z"/>
						<path fill="#965922" d="M106.744,21.384c-0.01,0-0.021-0.001-0.034-0.006c-0.036-0.016-0.05-0.06-0.034-0.094
							c0.121-0.253,0.079-0.583,0.024-1.001c-0.061-0.476-0.137-1.067-0.006-1.797c0.006-0.039,0.044-0.065,0.082-0.06
							c0.041,0.006,0.064,0.042,0.059,0.082c-0.129,0.707-0.052,1.287,0.006,1.754c0.057,0.44,0.101,0.79-0.036,1.081
							C106.795,21.366,106.771,21.382,106.744,21.384z"/>
						<path fill="#4D1800" d="M108.829,22.949c-0.034-0.019-0.079-0.01-0.099,0.024c-0.009,0.01-0.648,1.022-1.477,1.075
							c-0.041,0.003-0.068,0.037-0.066,0.076s0.036,0.07,0.074,0.067c0.101-0.006,0.199-0.025,0.292-0.053
							c-0.066,0.031-0.135,0.058-0.206,0.077c-0.181,0.051-0.384,0.046-0.587,0.007c-0.139-0.107-0.495-0.292-1.38-0.634
							c-0.032-0.013-0.07,0-0.087,0.032c-0.018,0.032-0.01,0.071,0.019,0.091c0.032,0.021,0.473,0.338,1.004,0.533
							c-0.314-0.074-0.658-0.221-0.979-0.385c-0.229-0.161-0.616-0.402-1.258-0.773c-0.032-0.019-0.076-0.008-0.097,0.023
							c-0.02,0.031-0.012,0.074,0.019,0.097c0.036,0.028,0.6,0.439,1.268,0.779c0.031,0.022,0.063,0.044,0.09,0.064
							c-0.046-0.016-0.101-0.038-0.167-0.064c-0.418-0.168-0.788-0.408-1.098-0.663c-0.214-0.26-0.562-0.653-1.121-1.249
							c-0.026-0.026-0.066-0.03-0.095-0.008c-0.016,0.011-0.025,0.029-0.027,0.048c0.46,0.528,1.102,1.269,1.145,1.316
							c-0.711-0.583-1.11-1.231-1.137-1.271c-0.008-0.014-0.011-0.03-0.008-0.045c-0.272-0.312-0.478-0.549-0.463-0.529
							c-0.704-0.912-0.021,0.268-0.273,0.023c-0.026-0.029-0.634-0.969-0.662-0.942c-0.01,0.008,0.352,0.834,0.346,0.845
							c-0.289-0.519-0.503-0.984-0.562-1.117c-0.006-0.013-0.012-0.026-0.018-0.039c-0.014-0.036-0.378-0.683-0.414-0.668
							c-0.036,0.016,0.27,0.69,0.283,0.726c0.004,0.008-0.315-0.486-0.298-0.445c0.182,0.406,0.89,1.777,1.145,2.325
							c-0.424-0.542-1.701-3.386-1.697-3.347c0.163,1.398,1.227,2.971,1.722,3.591c0.108,0.09,0.22,0.181,0.334,0.26
							c0.002-0.003,0.004-0.003,0.006-0.006c0.015-0.023,0.008-0.06-0.006-0.083c-0.024-0.03-0.11-0.221-0.237-0.492
							c0.199,0.303,0.416,0.587,0.636,0.803c0.197,0.093,0.395,0.182,0.583,0.287c0.021-0.038,0.017-0.131-0.245-0.491
							c0.45,0.439,0.913,0.865,1.167,1.023c0.05,0.033,0.146,0.092,0.203,0.026c0.016-0.02,0.036-0.045-0.021-0.149
							c0.229,0.154,0.484,0.292,0.759,0.403c0.4,0.16,0.479,0.161,0.517,0.084c0.004-0.009,0.008-0.017,0.01-0.029
							c0.284,0.122,0.569,0.216,0.833,0.251c0.072,0.01,0.135,0.017,0.184,0.017c0.084,0,0.135-0.017,0.156-0.061
							c0.189,0.026,0.376,0.022,0.55-0.027c0.841-0.238,1.442-1.263,1.466-1.305C108.871,23.013,108.861,22.969,108.829,22.949z"/>
						<path fill="#4D1800" d="M101.885,21.661L101.885,21.661C102.217,22.236,102.416,22.259,101.885,21.661z"/>
						<path fill="#000003" d="M104.227,6.15c0.306-0.062,0.543-0.096,0.788-0.071c0.308,0.031,0.565,0.114,0.771,0.21l-0.057,0.24
							c-0.185-0.087-0.507-0.237-0.784-0.265c-0.226-0.022-0.565,0.005-0.772,0.184L104.227,6.15z"/>
						<path fill="#A36B56" d="M95.819,6.196c-0.223-0.69-0.044-1.18,0.825-2.108c0.042-0.043,0.09,0.167,0.135,0.208
							c0.044,0.041,0.074,0.581,0.034,0.625c-0.503-0.123-0.947,0.733-0.767,1.293C96.208,6.377,95.834,6.242,95.819,6.196z"/>
						<path fill="#4D1800" d="M96.562,8.836c0.015-0.054,0.334-0.928,0.642-1.568c0.043-0.084,0.191-0.167,0.151-0.083
							c-0.304,0.629-0.742,2.262-0.746,2.275C96.58,9.557,96.527,8.953,96.562,8.836z"/>
						<path fill="#4D1800" d="M96.598,10.085c-0.004,0-0.01,0-0.014-0.001c-0.038-0.007-0.064-0.045-0.057-0.083
							c0.013-0.062,0.284-1.538,0.527-2.075c0.016-0.037,0.059-0.053,0.093-0.036c0.036,0.017,0.05,0.058,0.036,0.094
							c-0.235,0.521-0.511,2.027-0.516,2.042C96.662,10.061,96.632,10.085,96.598,10.085z"/>
						<path fill="#4D1800" d="M96.598,11.14c-0.038,0-0.068-0.027-0.07-0.064c-0.038-0.401,0.157-1.036,0.417-1.823
							c0.012-0.038,0.054-0.058,0.09-0.045c0.038,0.012,0.059,0.052,0.047,0.09c-0.256,0.771-0.447,1.392-0.413,1.764
							c0.005,0.04-0.023,0.075-0.063,0.079C96.602,11.14,96.6,11.14,96.598,11.14z"/>
						<path fill="#885018" d="M106.081,19.542c-0.038,0-0.07-0.031-0.07-0.071c0-0.047,0.106-1.436,0.571-2.175
							c0.06-0.094,0.128-0.045,0.078,0.035c-0.442,0.702-0.507,2.128-0.507,2.139c0,0.04-0.032,0.072-0.07,0.073
							C106.083,19.542,106.083,19.542,106.081,19.542z"/>
						<path fill="#965922" d="M102.904,21.701c-0.03,0.004-0.064-0.017-0.076-0.051c-0.292-0.767-0.37-1.381-0.37-1.895
							c-0.006,0.26-0.004,0.504,0,0.7c0.004,0.41,0.006,0.444-0.07,0.442c-0.072-0.003-0.089-0.044-0.175-0.493
							c-0.161-0.831-0.049-1.712,0.014-2.185c0,0,0-0.001,0-0.001c-0.021,0.043-0.038,0.082-0.048,0.105
							c-0.307,0.695-0.146,1.98-0.077,2.53c0.034,0.272,0.038,0.301-0.028,0.306c-0.07,0.007-0.07,0.007-0.213-0.487
							c-0.171-0.597-0.219-1.143-0.153-1.768c0.028-0.263,0.066-0.513,0.104-0.717c-0.353,0.987-0.316,2.265-0.246,2.438
							c0.015,0.033,0.034,0.083-0.002,0.114c-0.02,0.017-0.052,0.019-0.074,0.002c-0.076-0.052-0.368-0.878-0.163-2.412
							c0.004-0.038,0.038-0.06,0.074-0.048c0.034,0.01,0.059,0.05,0.055,0.086c-0.074,0.555-0.083,1.003-0.061,1.35
							c0.028-0.549,0.131-1.233,0.368-1.789c0.095-0.223,0.123-0.279,0.191-0.247c0.074,0.033,0.066,0.07,0.004,0.426
							c-0.036,0.218-0.089,0.516-0.121,0.831c-0.052,0.516-0.028,0.975,0.083,1.458c-0.066-0.646-0.113-1.574,0.141-2.146
							c0.173-0.391,0.197-0.429,0.27-0.397c0.072,0.033,0.066,0.09,0.024,0.403c-0.057,0.449-0.161,1.269-0.028,2.05
							c-0.004-0.172-0.004-0.372,0-0.58c0-0.014,0.036-1.312,0.273-1.347c0,0,0.002,0,0.002,0c0.021-0.002,0.042,0.007,0.057,0.023
							c0.016,0.016,0.026,0.038,0.021,0.059c-0.006,0.153-0.021,0.306-0.038,0.468c-0.072,0.692-0.15,1.474,0.306,2.683
							c0.017,0.038,0,0.078-0.032,0.087C102.91,21.7,102.906,21.701,102.904,21.701z"/>
						<path fill="#EA9A4F" d="M103.357,18.736c-0.011,0-0.022-0.003-0.032-0.009c-0.034-0.018-0.047-0.057-0.032-0.091
							c0.018-0.042,0.456-1.029,0.887-1.501c0.026-0.029,0.072-0.031,0.101-0.004c0.03,0.026,0.032,0.071,0.004,0.1
							c-0.141,0.155-0.283,0.371-0.412,0.592c0.203-0.275,0.402-0.529,0.489-0.591c0.02-0.013,0.076-0.055,0.124-0.009
							c0.051,0.046,0.03,0.085-0.07,0.248c0.044-0.048,0.091-0.089,0.139-0.122c0.032-0.022,0.079-0.014,0.099,0.019
							c0.022,0.032,0.015,0.076-0.016,0.1c-0.288,0.194-0.529,0.754-0.648,1.024c-0.084,0.196-0.101,0.236-0.173,0.215
							c-0.07-0.021-0.058-0.088-0.036-0.223c0.032-0.194,0.121-0.403,0.222-0.596c-0.195,0.264-0.417,0.574-0.584,0.819
							C103.403,18.724,103.383,18.736,103.357,18.736z"/>
						<path fill="#EA9A4F" d="M104.166,18.61c-0.011,0-0.019-0.002-0.028-0.006c-0.032-0.014-0.051-0.051-0.038-0.086
							c0.008-0.029,0.235-0.73,0.726-1.112c0.032-0.024,0.077-0.019,0.101,0.011c0.017,0.022,0.019,0.049,0.011,0.071
							c0.03-0.025,0.06-0.049,0.094-0.074c0.14-0.1,0.186-0.142,0.186-0.142l0.004,0.004c0.022-0.016,0.04-0.022,0.049-0.022
							c0.018,0,0.036,0.008,0.048,0.021c0.026-0.019,0.053-0.036,0.08-0.054c0.034-0.021,0.079-0.012,0.099,0.021
							c0.022,0.033,0.013,0.078-0.021,0.099c-0.33,0.211-0.558,0.509-0.688,0.729c-0.014,0.029-0.028,0.061-0.04,0.092
							c-0.103,0.254-0.125,0.266-0.177,0.262c-0.03-0.002-0.059-0.025-0.066-0.055c-0.009-0.035,0.046-0.185,0.16-0.375
							c0.013-0.025,0.024-0.05,0.039-0.075c-0.28,0.321-0.469,0.65-0.473,0.655C104.216,18.598,104.189,18.61,104.166,18.61z"/>
						<path fill="#885018" d="M103.325,16.685c-0.009,0-0.015-0.001-0.022-0.004c-0.026-0.006-0.053-0.036-0.057-0.065
							c-0.01-0.05,0.224-0.49,0.334-0.678c-0.259,0.341-0.774,0.741-0.837,0.697c-0.058-0.043,0.258-0.156,0.727-0.841
							c-0.087,0.087-1.587,1.262-1.229,0.89l1.727-1.614c0.023-0.026,0.066-0.028,0.097-0.005c0.027,0.023,0.034,0.066,0.014,0.095
							c-0.076,0.108-0.161,0.234-0.249,0.361c0.175-0.185,0.352-0.354,0.513-0.496c0.114-0.114,0.226-0.21,0.328-0.277
							c0.01-0.007,0.02-0.013,0.03-0.02c0.082-0.061,0.148-0.108,0.201-0.137c0.006-0.006,0.012-0.011,0.016-0.012l0.002,0.001
							c0.032-0.017,0.055-0.024,0.064-0.022c0.028,0.006,0.048,0.029,0.055,0.057c0.008,0.05,0.01,0.057-0.252,0.228
							c-0.104,0.079-0.237,0.188-0.388,0.322c-0.298,0.304-0.59,0.713-0.783,1.019c0.296-0.321,0.55-0.65,0.894-0.888l1.008-0.912
							c0.159-0.167,0.059,0.205-0.161,0.453c0.155-0.16,0.843-0.881,0.692-0.591c-0.393,0.752-2.082,2.049-2.15,2.096
							c-0.03,0.021-0.07,0.015-0.095-0.014c-0.024-0.027-0.022-0.068,0.002-0.094l0.27-0.283c-0.181,0.148-0.35,0.309-0.484,0.485
							C103.428,16.641,103.373,16.685,103.325,16.685L103.325,16.685z M104.727,15.469L104.727,15.469l-0.281,0.296
							c0.283-0.218,0.617-0.491,0.897-0.763C105.176,15.155,104.958,15.306,104.727,15.469z"/>
						<path fill="#885018" d="M104.411,16.07c-0.024,0-0.048-0.012-0.063-0.033c-0.02-0.032-0.01-0.077,0.024-0.098
							c0.016-0.01,1.392-1.419,2.15-2.083c-0.316,0.322-0.155,0.516-0.736,1.138c-0.228,0.242-0.861,0.761-1.338,1.066
							C104.438,16.067,104.423,16.07,104.411,16.07z"/>
						<path fill="#A16324" d="M108.655,15.455c0.451,0.041,1.021-0.229,1.021-0.229l0.279,1.079l-0.509,1.239l-0.061-1.599
							l-0.161-0.379C109.225,15.566,108.907,15.575,108.655,15.455z"/>
						<path fill="#EA9A4F" d="M104.125,16.227c0.28-0.237,0.204-0.232,0.63-0.646c0.064-0.063,0.362-0.179,0.288-0.105
							C104.988,15.528,103.904,16.512,104.125,16.227z"/>
						<path fill="#FDF0E1" d="M104.761,7.312c-0.006,0-0.01,0-0.014-0.003c-0.6-0.267-0.871-0.773-0.883-0.94
							c-0.002-0.02,0.012-0.037,0.032-0.039c0.02,0,0.036,0.014,0.036,0.033c0.01,0.111,0.241,0.613,0.843,0.881
							c0.016,0.008,0.026,0.029,0.018,0.047C104.787,7.305,104.775,7.312,104.761,7.312z"/>
						<path fill="#A8796A" d="M106.459,7.675c-0.006,0-0.014-0.001-0.022-0.003c-0.124-0.041-0.243-0.048-0.396-0.058
							c-0.27-0.018-0.645-0.063-1.304-0.296c-0.584-0.205-0.941-0.565-1.085-1.031c-0.01-0.038-0.012-0.053,0.026-0.063
							c0.038-0.011,0.127,0,0.137,0.037c0.127,0.42,0.419,0.792,0.956,0.981c0.642,0.228,1.016,0.212,1.279,0.229
							c0.154,0.011,0.287,0.02,0.431,0.065c0.036,0.011,0.056,0.052,0.046,0.089C106.518,7.656,106.489,7.675,106.459,7.675z"/>
						<path fill="#4D1800" d="M106.449,7.649c-0.063-0.072,0.374-0.227,0.064-0.764c-0.133-0.227-0.471-0.535-1.141-0.684
							c-0.882-0.195-1.509,0.131-1.951,0.093c-0.632-0.235-0.516-0.264-0.208-0.295c0.304-0.031,0.789-0.067,1.171-0.095
							c-2.255-0.19-1.72-0.244-0.794-0.216c0.909,0.026,2.185,0.128,2.635,0.251c1.173,0.32,1.139,1.17,1.135,1.202
							c-0.004,0.046-0.076,0.078-0.095,0.077c-0.044-0.006-0.101-0.037-0.095-0.083c0.002-0.028,0.07-0.684-0.955-0.965
							c-0.947-0.257,0.79,0.048,0.581,1.372C106.962,7.621,106.89,7.79,106.449,7.649z"/>
						<path fill="#E7AA79" d="M97.986,10.853c-0.017-0.001-0.032-0.008-0.043-0.021c-0.025-0.028-0.023-0.07,0.002-0.096
							c0.163-0.152,0.29-0.482,0.389-0.832c-0.072,0.146-0.155,0.299-0.254,0.453c-0.02,0.032-0.062,0.041-0.094,0.021
							c-0.032-0.021-0.041-0.063-0.021-0.094c0.499-0.779,0.594-1.544,0.596-1.552c0.004-0.038,0.038-0.064,0.074-0.06
							c0.038,0.004,0.064,0.038,0.063,0.074l0,0c0,0.001,0,0.002,0,0.002c0,0,0,0,0,0l0,0c-0.01,0.067-0.201,1.658-0.658,2.087
							C98.026,10.85,98.006,10.855,97.986,10.853z"/>
						<path fill="#EA9A4F" d="M98.203,11.211c-0.01,0-0.02-0.001-0.03-0.006c-0.034-0.017-0.05-0.058-0.034-0.094
							c0.004-0.007,0.306-0.666,0.376-1.263c0.009-0.038,0.043-0.066,0.081-0.061c0.038,0.005,0.066,0.04,0.061,0.079
							c-0.075,0.62-0.375,1.277-0.389,1.304C98.258,11.196,98.231,11.211,98.203,11.211z"/>
						<path fill="#EA9A4F" d="M98.334,11.464c-0.014,0-0.028-0.003-0.04-0.011c-0.032-0.021-0.042-0.066-0.021-0.1
							c0.002-0.003,0.226-0.361,0.398-1.326c0.006-0.039,0.044-0.065,0.083-0.057c0.038,0.006,0.063,0.043,0.056,0.082
							c-0.179,0.998-0.408,1.363-0.416,1.379C98.38,11.453,98.356,11.464,98.334,11.464z"/>
						<path fill="#EA9A4F" d="M100.357,15.748c-0.018,0-0.032-0.004-0.044-0.015c-0.032-0.024-0.036-0.069-0.014-0.1
							c0.012-0.013,0.268-0.329,0.778-0.609c0.032-0.019,0.076-0.006,0.095,0.028c0.02,0.034,0.006,0.078-0.026,0.097
							c-0.485,0.266-0.73,0.571-0.734,0.573C100.398,15.739,100.378,15.748,100.357,15.748z"/>
						<path fill="#EA9A4F" d="M100.42,15.476c-0.006,0-0.016-0.002-0.021-0.005c-0.039-0.012-0.059-0.056-0.047-0.093
							c0.012-0.033,0.081-0.157,0.499-0.379c0.034-0.019,0.078-0.004,0.097,0.029c0.018,0.035,0.004,0.079-0.028,0.096
							c-0.378,0.2-0.435,0.304-0.435,0.305C100.477,15.458,100.45,15.476,100.42,15.476z"/>
						<path fill="#EA9A4F" d="M100.255,15.41c-0.01,0-0.023-0.003-0.034-0.01c-0.034-0.019-0.046-0.063-0.026-0.098
							c0.009-0.012,0.188-0.317,0.537-0.563c0.03-0.023,0.077-0.015,0.099,0.018c0.022,0.032,0.015,0.077-0.016,0.099
							c-0.324,0.227-0.495,0.515-0.497,0.519C100.304,15.396,100.281,15.41,100.255,15.41z"/>
						<path fill="#FBDBC7" d="M94.927,6.016c-0.057,0-0.105-0.033-0.125-0.088c-0.189-0.528-0.135-1.707,0.577-2.674
							c0.044-0.059,0.125-0.072,0.183-0.028c0.059,0.042,0.105,0.176,0.061,0.233c-0.653,0.89-0.742,1.907-0.573,2.381
							c0.024,0.068-0.01,0.144-0.08,0.168C94.954,6.014,94.938,6.016,94.927,6.016z"/>
						<path fill="#7A9A8C" d="M104.731,24.262c0.167,0.716-0.057,1.105-0.057,1.105l-1.917,1.938l-0.296,0.569l0.4,0.809
							l1.845-0.007l-0.855-1.54c0,0,0.711-1.235,0.922-1.403c0.211-0.168,1.44,1.761,1.418,1.634
							c-0.022-0.125-0.989-2.653-0.989-2.653S104.815,24.326,104.731,24.262z"/>
						
							<linearGradient id="SVGID_12_" gradientUnits="userSpaceOnUse" x1="359.3115" y1="-280.1904" x2="367.1344" y2="-302.9099" gradientTransform="matrix(1 0 0 -1 -267 -278)">
							<stop  offset="0" style="stop-color:#EEB69A"/>
							<stop  offset="1" style="stop-color:#FACFB2"/>
						</linearGradient>
						<path fill="url(#SVGID_12_)" d="M95.992,8.899c0.049,1.136-0.999,4.854-0.999,4.854l0.104,1.372l0.853,1.588l0.406-7.622
							C96.356,9.092,95.992,8.947,95.992,8.899z"/>
						<path fill="#EA9A4F" d="M98.652,12.708c-0.117-0.076,0.283-0.621,0.357-1.102c-0.028,0.052-0.326,0.606-0.433,0.457
							c-0.028-0.042-0.016-0.081,0.072-0.229c0.081-0.142,0.149-0.371,0.201-0.597c-0.27,0.563-0.503,0.697-0.488,0.649
							c0.207-0.723,0.615-2.169,0.519-1.627c-0.06,0.452-0.076,0.622-0.146,0.893c0.237-0.512,0.29-0.872,0.315-0.806
							c0.026,0.066,0.03,0.551-0.082,1.016c0.024-0.058,0.042-0.115,0.057-0.168c0.023-0.094,0.042-0.151,0.096-0.161
							c0.03-0.004,0.061,0.011,0.077,0.035c0.03,0.048,0.014,0.274-0.045,0.542c0.026-0.042,0.053-0.086,0.083-0.133
							c0.02-0.033,0.095-0.097,0.131-0.076C99.33,11.803,98.905,12.562,98.652,12.708z"/>
						<path fill="#885018" d="M106.055,18.732c-0.004,0-0.008,0-0.01-0.001c-0.038-0.004-0.066-0.04-0.063-0.078
							c0.004-0.034,0.133-1.025,0.522-1.509c0.059-0.073,0.153-0.059,0.095,0.015c-0.364,0.451-0.473,1.503-0.475,1.511
							C106.121,18.705,106.091,18.732,106.055,18.732z"/>
						<polygon fill="#FFFFFF" points="110.23,12.291 109.985,12.639 110.243,12.969 110.43,12.714 						"/>
						<path fill="#FFFFFF" d="M113.377,1.106c-0.004,0-0.01,0-0.014,0c-0.111-0.007-0.195-0.104-0.189-0.215
							c0.002-0.015,0.068-1.483-1.275-2.781c-0.078-0.078-0.082-0.207-0.004-0.287c0.078-0.081,0.207-0.083,0.287-0.005
							c1.485,1.434,1.4,3.032,1.396,3.099C113.572,1.024,113.483,1.106,113.377,1.106z"/>
						<path fill="#341900" d="M88.774,16.688v11.995h9.425c0,0-5.935-13.885-4.341-14.563l-2.285,1.73L88.774,16.688z"/>
						<path fill="#885018" d="M109.243,18.538c-0.004,0-0.008,0-0.01-0.001c-0.032-0.007-0.051-0.038-0.045-0.068
							c0.119-0.542,0.268-0.826,0.389-1.054c0.016-0.029,0.03-0.057,0.046-0.086c-0.084,0.116-0.185,0.263-0.26,0.391
							c-0.034,0.059-0.06,0.102-0.076,0.132c-0.016,0.026-0.026,0.045-0.032,0.053c0,0,0,0,0,0.001
							c-0.002,0.003-0.002,0.005-0.004,0.005c-0.016,0.025-0.048,0.033-0.076,0.016c-0.026-0.018-0.038-0.024-0.015-0.076
							l-0.004-0.002c0.053-0.089,0.258-0.455,0.385-0.707c-0.036,0.045-0.068,0.084-0.093,0.111c-0.008,0.01-0.01,0.014-0.01,0.015
							l-0.002-0.001c-0.013,0.015-0.022,0.023-0.022,0.025c-0.026,0.011-0.055,0.006-0.07-0.015
							c-0.032-0.038-0.032-0.038,0.129-0.24c0.03-0.037,0.056-0.068,0.078-0.094c0.006-0.008,0.01-0.014,0.017-0.021
							c-0.123,0.07-0.153,0.066-0.182,0.031c-0.046-0.057,0.006-0.107,0.173-0.277c0,0,0.002,0,0.002-0.001
							c-0.023,0.003-0.046-0.003-0.062-0.022c-0.037-0.045-0.005-0.091,0.078-0.183c-0.078,0.021-0.104,0.01-0.123-0.023
							c-0.032-0.054,0.017-0.104,0.133-0.19c-0.099,0.034-0.139,0.042-0.163-0.007c-0.03-0.053,0.024-0.092,0.077-0.129
							c0.027-0.019,0.05-0.037,0.07-0.053c-0.004,0.002-0.007,0.004-0.011,0.004c-0.106,0.042-0.145,0.056-0.171,0.006
							c-0.026-0.05,0.021-0.08,0.064-0.105c0.042-0.028,0.079-0.052,0.104-0.07c-0.014,0.004-0.025,0.006-0.036,0.008
							c-0.072,0.019-0.118,0.029-0.137-0.022c-0.006-0.017-0.006-0.03,0-0.041c-0.052,0.01-0.066,0-0.082-0.03
							c-0.022-0.05,0.028-0.082,0.044-0.092c0.008-0.005,0.016-0.009,0.022-0.014c-0.089,0.034-0.121,0.043-0.144-0.005
							c-0.02-0.05,0.028-0.077,0.051-0.089c0.063-0.034,0.112-0.061,0.152-0.083c0,0-0.002,0-0.004,0
							c-0.156,0.025-0.352,0.056-0.479,0.027c-0.03-0.007-0.05-0.037-0.042-0.068c0.008-0.03,0.038-0.049,0.066-0.042
							c0.106,0.023,0.298-0.007,0.435-0.029c0.181-0.029,0.247-0.04,0.27,0.025c0.006,0.021,0.006,0.04-0.011,0.063
							c0.017,0.006,0.026,0.017,0.034,0.033c0.015,0.028,0.013,0.053-0.027,0.094c0.116-0.037,0.145-0.033,0.165,0.014
							c0.018,0.04,0.014,0.062-0.113,0.131c0.015,0.007,0.024,0.019,0.03,0.034c0.012,0.025,0.008,0.05-0.016,0.08
							c0.04-0.005,0.064,0.006,0.08,0.034c0.021,0.041,0.01,0.076-0.095,0.162c0.066-0.016,0.104-0.012,0.125,0.027
							c0.024,0.047-0.004,0.086-0.104,0.163c0.038-0.008,0.061,0.014,0.066,0.023c0.028,0.042,0.008,0.07-0.081,0.165
							c0.032-0.01,0.059-0.006,0.079,0.019c0.038,0.05,0.006,0.092-0.131,0.23c0.006-0.004,0.01-0.007,0.016-0.01
							c0.015-0.01,0.034-0.013,0.051-0.006c0.018,0.007,0.03,0.02,0.036,0.038c0.006,0.025-0.01,0.068-0.038,0.121
							c0.023,0.021,0.03,0.055-0.038,0.202c0.04-0.032,0.076-0.047,0.101-0.034c0.068,0.034,0.025,0.128-0.013,0.218
							c-0.034,0.074-0.072,0.145-0.114,0.221c-0.115,0.221-0.26,0.497-0.376,1.024C109.293,18.52,109.271,18.538,109.243,18.538z"/>
						<path fill="#EA9A4F" d="M110.171,15.908c-0.005,0-0.009-0.001-0.013-0.002c-0.034-0.006-0.057-0.04-0.05-0.075
							c0.002-0.008,0.099-1-0.131-1.513c-0.017-0.032,0.084,0.042,0.099,0.075c0.247,0.552,0.163,1.427,0.156,1.463
							C110.227,15.887,110.2,15.908,110.171,15.908z"/>
						<path fill="#EA9A4F" d="M110.006,15.384c-0.002,0-0.007,0-0.009,0c-0.038-0.005-0.066-0.04-0.062-0.08
							c0-0.006,0.042-0.774-0.159-1.278c0.332,0.242,0.304,1.269,0.3,1.295C110.072,15.357,110.042,15.384,110.006,15.384z"/>
						<path fill="#A16324" d="M109.585,18.664c-0.002,0-0.004,0-0.004,0c-0.028-0.003-0.048-0.027-0.046-0.056
							c0-0.007,0.074-0.734,0.352-1.501c0.01-0.026,0.038-0.04,0.064-0.03c0.026,0.01,0.04,0.038,0.03,0.065
							c-0.275,0.755-0.346,1.469-0.346,1.476C109.634,18.645,109.609,18.664,109.585,18.664z"/>
						<path fill="#965922" d="M104.227,22.653c-0.021,0-0.043-0.009-0.059-0.028c-0.626-0.714-0.831-1.737-0.92-2.375
							c0.021,0.478,0.178,1.09,0.268,1.453c0.095,0.38,0.107,0.43,0.03,0.45c-0.076,0.023-0.118-0.06-0.203-0.224
							c-0.235-0.466-0.338-1.293-0.38-1.908c-0.032,0.488-0.01,1.148,0.233,1.773c0.014,0.038-0.004,0.078-0.04,0.088
							c-0.036,0.01-0.079-0.011-0.093-0.049c-0.483-1.241-0.143-2.56-0.131-2.616c0.01-0.033,0.044-0.053,0.078-0.044
							c0.038,0.009,0.064,0.042,0.064,0.077c0,0.008,0.002,0.332,0.032,0.763c0.002-0.051,0.008-0.101,0.017-0.146
							c0.03-0.183,0.042-0.251,0.118-0.242c0.074,0.01,0.083,0.055,0.108,0.302c0.063,0.538,0.208,1.797,0.92,2.613
							c0.028,0.031,0.026,0.076-0.002,0.099C104.256,22.648,104.242,22.653,104.227,22.653z"/>
						<path fill="#885018" d="M103.17,22.169c-0.024,0-0.048-0.014-0.061-0.039c-0.02-0.037-0.475-0.922-0.426-1.935
							c0-0.041,0.034-0.068,0.074-0.068c0.038,0.002,0.068,0.035,0.068,0.074c-0.047,0.975,0.404,1.854,0.406,1.864
							c0.021,0.034,0.006,0.078-0.028,0.095C103.194,22.167,103.182,22.169,103.17,22.169z"/>
						<path fill="#6E3400" d="M108.792,6.288c-0.01,0-0.016-0.002-0.025-0.004c-0.28-0.102-0.509-0.208-0.7-0.313
							c-0.055,0.001-0.133-0.037-0.254-0.098c-0.332-0.176-0.587-0.432-0.832-0.68c-0.294-0.294-0.567-0.574-0.93-0.641
							c-0.038-0.007-0.064-0.045-0.057-0.083c0.006-0.038,0.044-0.064,0.083-0.057c0.404,0.076,0.695,0.37,1.003,0.682
							c0.059,0.059,0.117,0.119,0.18,0.177c-0.01-0.014-0.013-0.024-0.015-0.026c-0.012-0.03-0.004-0.065,0.022-0.084
							c0.024-0.02,0.061-0.02,0.087,0c0.547,0.422,0.728,0.598,0.778,0.684c0.181,0.103,0.408,0.208,0.684,0.307
							c0.036,0.014,0.055,0.055,0.042,0.092C108.849,6.27,108.82,6.288,108.792,6.288z"/>
						<path fill="#4D1800" d="M108.664,6.485c-0.026-0.002,0.04,0.192-1.408-0.823c-0.469-0.328-0.845-0.577-1.161-0.768
							c-0.264-0.096-0.539-0.255-0.811-0.363c-0.425-0.169-0.537-0.175-0.626-0.234c-0.805-0.229-1.77-0.303-1.881-0.369
							c-0.192-0.114,1.29,0.007,2.356,0.308c0.038-0.003-0.467-0.184-0.445-0.179c0.248,0.052,0.487,0.123,0.785,0.258
							c0.386,0.13,0.778,0.281,1.143,0.456c0.237,0.115,0.336,0.163,0.291,0.273c-0.016,0.038-0.04,0.06-0.076,0.066
							c0.169,0.113,0.351,0.237,0.549,0.376c1.4,0.981,1.988,1.046,1.994,1.047C109.503,6.547,108.724,6.491,108.664,6.485z"/>
						<path fill="#885018" d="M105.707,15.217c-0.024,0-0.047-0.01-0.061-0.031c-0.021-0.032-0.015-0.077,0.02-0.099
							c0.582-0.398,0.797-1.217,0.966-1.294c0.191-0.086-0.213,0.48-0.488,1.276C106.129,15.078,105.721,15.217,105.707,15.217z"/>
						<path fill="#885018" d="M106.324,14.935c-0.022,0-0.042-0.01-0.057-0.028c-0.023-0.031-0.018-0.076,0.013-0.1
							c0.004-0.002,0.249-0.205,0.374-0.79c0.01-0.039,0.046-0.063,0.086-0.054c0.036,0.008,0.063,0.046,0.055,0.084
							c-0.137,0.641-0.414,0.863-0.427,0.873C106.354,14.93,106.338,14.935,106.324,14.935z"/>
						<path fill="#885018" d="M105.303,14.486c-1.117,0.604-0.646,0.666-1.282,1.217C103.673,15.862,105.193,14.694,105.303,14.486z
							"/>
						<path fill="#4D1800" d="M112.804,8.147c-0.004,0-0.01,0-0.014-0.003c-0.328-0.097-0.765-0.085-0.974-0.08
							c-0.159,0.005-0.188,0.005-0.195-0.047c-0.009-0.054,0.025-0.062,0.213-0.108c0.146-0.035,0.315-0.044,0.475-0.04
							c-0.49-0.034-0.945,0.134-0.951,0.137c-0.024,0.007-0.051-0.002-0.063-0.024c-0.012-0.021-0.006-0.049,0.014-0.064
							c0.017-0.011,0.383-0.269,1.153-0.257c0.028,0,0.05,0.024,0.05,0.051c0,0.029-0.023,0.05-0.05,0.05
							c-0.07-0.001-0.133,0-0.195,0.002c0.146,0.007,0.296,0.029,0.442,0.078c0.25,0.081,0.258,0.083,0.245,0.135
							c-0.01,0.05-0.038,0.047-0.175,0.03c-0.097-0.011-0.239-0.029-0.4-0.036c0.147,0.011,0.3,0.035,0.438,0.075
							c0.028,0.008,0.041,0.036,0.034,0.063C112.846,8.132,112.826,8.147,112.804,8.147z"/>
						<path fill="#F7B05E" d="M108.522,19.119c-0.004,0-0.006,0-0.01,0c-0.038-0.004-0.066-0.031-0.063-0.063
							c0-0.012,0.141-1.139-0.086-1.584c-0.017-0.029,0.002-0.063,0.038-0.074c0.038-0.011,0.078,0.002,0.093,0.031
							c0.241,0.472,0.103,1.59,0.096,1.638C108.587,19.096,108.557,19.119,108.522,19.119z"/>
						<path fill="#F7B05E" d="M108.402,19.113c-0.004,0-0.01-0.001-0.017-0.002c-0.038-0.009-0.06-0.048-0.052-0.085
							c0.002-0.009,0.228-1.01-0.104-1.836c-0.017-0.036,0.002-0.078,0.038-0.093s0.078,0.003,0.093,0.04
							c0.352,0.868,0.122,1.878,0.114,1.921C108.467,19.091,108.437,19.113,108.402,19.113z"/>
						<path fill="#EA9A4F" d="M107.776,20.638c0.006-0.009,0.6-1.699,0.457-2.885C108.813,19.349,107.62,20.952,107.776,20.638z"/>
						<path fill="#EA9A4F" d="M108.296,19.707c-0.004,0-0.011,0-0.015-0.003c-0.016-0.007-0.026-0.028-0.02-0.046
							c0.006-0.009,0.35-0.867-0.043-2.02c-0.006-0.019,0.005-0.04,0.024-0.046c0.019-0.007,0.038,0.004,0.044,0.023
							c0.4,1.179,0.047,2.06,0.041,2.069C108.324,19.698,108.31,19.707,108.296,19.707z"/>
						<path fill="#EA9A4F" d="M107.461,20.97c-0.008,0-0.017-0.002-0.022-0.007c-0.02-0.012-0.026-0.04-0.014-0.06
							c0.004-0.008,0.467-0.763,0.569-1.659c0.002-0.024,0.025-0.04,0.048-0.039c0.024,0.003,0.044,0.024,0.04,0.048
							c-0.104,0.917-0.577,1.687-0.581,1.695C107.491,20.963,107.477,20.97,107.461,20.97z"/>
						<path fill="#FBDBC7" d="M95.694,8.327L95.665,8.31c-0.362-0.198-0.55-0.341-0.55-1.188h0.286c0,0.718,0.116,0.783,0.4,0.938
							l0.03,0.018L95.694,8.327z"/>
						<path fill="#EA9A4F" d="M99.002,12.862c-0.01,0-0.021-0.002-0.03-0.007c-0.032-0.017-0.044-0.056-0.028-0.088
							c0.241-0.466,0.334-0.848,0.334-0.852c0.01-0.036,0.044-0.058,0.081-0.048c0.036,0.008,0.056,0.042,0.048,0.079
							c-0.004,0.016-0.099,0.4-0.346,0.882C99.05,12.848,99.026,12.862,99.002,12.862z"/>
						<path fill="#C27533" d="M99.101,12.929c-0.008-0.001-0.017-0.003-0.024-0.007c-0.026-0.016-0.034-0.048-0.018-0.074
							c0.219-0.366,0.315-0.672,0.315-0.674c0.01-0.03,0.04-0.044,0.068-0.036c0.026,0.009,0.044,0.039,0.034,0.067
							c-0.004,0.012-0.101,0.319-0.328,0.697C99.139,12.922,99.118,12.93,99.101,12.929z"/>
						<path fill="#C27533" d="M99.125,13.182c-0.009,0-0.017-0.003-0.024-0.007c-0.024-0.015-0.034-0.048-0.019-0.073
							c0.22-0.367,0.316-0.672,0.316-0.675c0.01-0.029,0.038-0.044,0.066-0.035c0.028,0.009,0.044,0.039,0.034,0.067
							c-0.004,0.013-0.099,0.32-0.326,0.698C99.163,13.174,99.143,13.183,99.125,13.182z"/>
						<path fill="#C27533" d="M99.235,13.32c-0.01,0-0.019-0.002-0.026-0.008c-0.024-0.015-0.032-0.047-0.018-0.072
							c0.221-0.366,0.317-0.673,0.317-0.676c0.008-0.027,0.038-0.043,0.066-0.034c0.028,0.009,0.044,0.04,0.034,0.067
							c-0.002,0.013-0.099,0.319-0.326,0.698C99.271,13.313,99.253,13.322,99.235,13.32z"/>
						<path fill="#F7C6A9" d="M99.313,13.412c-0.008,0-0.014-0.002-0.02-0.007c-0.022-0.012-0.028-0.041-0.017-0.062
							c0.189-0.317,0.271-0.581,0.273-0.582c0.006-0.025,0.032-0.039,0.057-0.031c0.024,0.007,0.038,0.033,0.03,0.058
							c-0.004,0.011-0.087,0.275-0.282,0.602C99.348,13.404,99.33,13.413,99.313,13.412z"/>
						<path fill="#EA9A4F" d="M98.306,11.828c-0.012,0-0.024-0.003-0.034-0.009c-0.034-0.019-0.046-0.063-0.026-0.098
							c0-0.003,0.197-0.348,0.262-0.751c0.006-0.039,0.042-0.065,0.081-0.059c0.038,0.007,0.064,0.043,0.058,0.082
							c-0.068,0.429-0.268,0.785-0.277,0.8C98.356,11.815,98.332,11.828,98.306,11.828z"/>
						<path fill="#A1652E" d="M106.96,14.875c-0.021,0-0.04-0.01-0.055-0.028c-0.023-0.032-0.018-0.077,0.013-0.101
							c0.004-0.003,0.467-0.362,0.545-0.824c0.006-0.039,0.042-0.066,0.082-0.058c0.036,0.006,0.064,0.043,0.057,0.083
							c-0.089,0.517-0.575,0.897-0.598,0.914C106.99,14.871,106.976,14.875,106.96,14.875z"/>
						<path fill="#A1652E" d="M107.306,14.947c-0.02,0-0.036-0.007-0.05-0.021c-0.028-0.028-0.028-0.073,0-0.101
							c0.004-0.004,0.44-0.452,0.479-0.952c0.004-0.04,0.038-0.067,0.076-0.066c0.04,0.004,0.068,0.037,0.066,0.077
							c-0.042,0.552-0.503,1.021-0.522,1.041C107.342,14.939,107.324,14.947,107.306,14.947z"/>
						<path fill="#A1652E" d="M107.581,14.85c-0.012,0-0.025-0.003-0.038-0.011c-0.032-0.021-0.042-0.065-0.02-0.099
							c0.004-0.005,0.33-0.508,0.352-0.824c0.002-0.041,0.038-0.068,0.076-0.066c0.039,0.003,0.066,0.037,0.066,0.076
							c-0.025,0.354-0.359,0.871-0.374,0.893C107.63,14.839,107.605,14.85,107.581,14.85z"/>
						<path fill="#EA9A4F" d="M107.674,15.222c0.006-0.003,0.664-0.375,0.721-0.867c0.01-0.091,0.046-0.056,0.036,0.034
							c-0.066,0.561-0.628,0.862-0.656,0.875C107.729,15.284,107.586,15.26,107.674,15.222z"/>
						<path fill="#F8B45D" d="M107.034,15.258c0.008,0,0.636-0.187,0.759-0.806c0.014-0.078,0.108-0.008,0.092,0.071
							c-0.13,0.67-0.714,0.819-0.742,0.825C107.083,15.362,106.939,15.279,107.034,15.258z"/>
						<path fill="#9A5A0B" d="M109.074,14.627c-0.008,0-0.017,0.562-0.024,0.561c-0.509,0.082-0.342-0.774-0.247-0.751l0.074,0.506
							c0.356-0.572-0.228-1.374-0.224-1.375c0.032-0.007,0.212,0.181,0.52,0.313c0.262,0.11,0.611,0.153,0.619,0.18
							c-0.769,0.124-0.593,0.943-0.609,0.96C109.162,15.044,109.104,14.627,109.074,14.627z"/>
						<path fill="#885018" d="M106.254,15.05c-0.022,0-0.042-0.008-0.057-0.025c-0.026-0.031-0.02-0.076,0.01-0.101l0.071-0.057
							c0.251-0.199,0.563-0.447,0.64-0.868c0.006-0.039,0.044-0.065,0.082-0.057c0.038,0.007,0.064,0.044,0.057,0.082
							c-0.087,0.475-0.421,0.741-0.69,0.956l-0.07,0.056C106.284,15.046,106.268,15.05,106.254,15.05z"/>
						<path fill="#885018" d="M106.618,15.021c-0.019,0-0.038-0.008-0.053-0.023c-0.026-0.03-0.026-0.072,0.004-0.099
							c0.135-0.116,0.531-0.454,0.6-1.006c0.006-0.039,0.042-0.066,0.081-0.062c0.038,0.004,0.066,0.04,0.06,0.079
							c-0.072,0.608-0.499,0.972-0.642,1.092C106.654,15.016,106.638,15.021,106.618,15.021z"/>
						<path fill="#4D1800" d="M105.736,24.409c-0.016-0.032-0.052-0.047-0.084-0.033c-0.032,0.014-0.046,0.052-0.032,0.085
							c0.283,0.663,0.545,2.46,0.636,3.133c-0.457-0.656-1.249-1.747-1.456-1.733c-0.229,0.022-0.807,0.855-0.979,1.11
							c-0.012,0.019-0.014,0.043-0.004,0.065l0.761,1.646c0.048-0.002,0.095-0.002,0.141,0l-0.772-1.667
							c0.332-0.49,0.751-1.014,0.861-1.024c0.141,0.026,0.871,0.982,1.492,1.893c0.019,0.024,0.049,0.034,0.074,0.023
							c0.028-0.011,0.045-0.04,0.041-0.069C106.402,27.732,106.091,25.246,105.736,24.409z"/>
						<path fill="#885018" d="M100.571,17.646c-0.034,0-0.063-0.028-0.063-0.063c0-0.918,0.712-1.633,0.794-1.713
							c0.009-0.009,0.017-0.014,0.022-0.017c0.028-0.014,0.063-0.004,0.081,0.021c0.016,0.025,0.014,0.061-0.011,0.081
							c0,0,0,0.001,0,0.002c-0.028,0.041-0.106,0.235-0.19,0.46c0.348-0.487,0.772-0.949,0.847-0.956
							c0.026-0.002,0.05,0.01,0.063,0.034c0.021,0.042-0.005,0.076-0.071,0.158c-0.146,0.18-0.315,0.473-0.46,0.752
							c0.264-0.365,0.607-0.805,0.963-1.152c0.024-0.023,0.064-0.022,0.089,0.002s0.024,0.064,0,0.088
							c-0.73,0.714-1.422,1.829-1.43,1.838c-0.017,0.029-0.053,0.039-0.081,0.023c-0.03-0.015-0.042-0.05-0.03-0.081
							c0.015-0.031,0.241-0.545,0.501-1.009c-0.215,0.263-0.452,0.582-0.602,0.86c-0.002,0.005-0.004,0.01-0.006,0.015
							c-0.171,0.465-0.171,0.466-0.231,0.444c-0.063-0.022-0.057-0.042,0.006-0.237c0.024-0.079,0.063-0.166,0.113-0.26
							c0.108-0.296,0.188-0.511,0.251-0.667c-0.221,0.296-0.492,0.772-0.492,1.313C100.634,17.618,100.605,17.646,100.571,17.646z"
							/>
						<path fill="#EA9A4F" d="M101.536,15.643c-0.018,0-0.955,0.77-0.969,0.758c-0.026-0.026-0.03-0.068-0.007-0.097l0.383-0.554
							l-0.408,0.273c-0.03,0.018-0.155,0.195-0.18,0.169c-0.023-0.025,0.3-0.5,0.32-0.526l-0.304,0.122
							c0.026-0.031,0.611-0.529,0.644-0.504c0.03,0.023,0.038,0.067,0.014,0.099l-0.247,0.323l0.507-0.308
							c0.066-0.038,0.348-0.104,0.338-0.089l-0.623,0.483c0.27-0.21,1.016-0.599,1.365-0.774c0.104-0.053,0.751-0.25,0.469-0.109
							c-0.972,0.444-1.832,1.442-1.839,1.45C100.987,16.37,101.553,15.643,101.536,15.643z"/>
						<path fill="#EA9A4F" d="M101.845,16.047c-0.002,0-0.009-0.001-0.013-0.002c-0.038-0.006-0.064-0.043-0.056-0.081
							c0.004-0.032,0.135-0.768,1.319-1.226c0.036-0.014,0.078,0.004,0.093,0.041c0.014,0.037-0.005,0.079-0.041,0.092
							c-1.102,0.425-1.23,1.108-1.232,1.115C101.908,16.022,101.879,16.047,101.845,16.047z"/>
						<path fill="#EA9A4F" d="M102.462,15.69c-0.008,0-0.017-0.001-0.026-0.005c-0.036-0.015-0.054-0.056-0.04-0.092
							c0.33-0.798,0.976-0.988,1.002-0.996c0.036-0.01,0.076,0.012,0.086,0.049c0.013,0.039-0.01,0.078-0.048,0.088
							c-0.006,0.002-0.605,0.181-0.907,0.912C102.517,15.673,102.49,15.69,102.462,15.69z"/>
						<path fill="#9D6C3E" d="M101.716,4.482c-0.026,0-0.053-0.016-0.061-0.042c-0.012-0.031,0.006-0.067,0.038-0.079
							c0.404-0.146,1.022-0.092,1.048-0.09c0.034,0.004,0.061,0.034,0.059,0.068c-0.004,0.035-0.034,0.062-0.068,0.057
							c-0.006,0-0.617-0.054-0.996,0.083C101.728,4.481,101.722,4.482,101.716,4.482z"/>
						<path fill="#EA9A4F" d="M105.986,15.457c0.008-0.002,0.746-0.149,1.163-0.697c0.054-0.071,0.078,0.003,0.032,0.066
							c-0.453,0.593-1.097,0.705-1.127,0.71C105.986,15.547,105.884,15.474,105.986,15.457z"/>
						<path fill="#F8B45D" d="M105.055,15.583c-0.01-0.039,1.266-0.348,1.482-0.73c0.139-0.246,0.189,0.366-1.025,0.664
							C105.481,15.523,105.059,15.599,105.055,15.583z"/>
						<path fill="#EA9A4F" d="M104.745,15.814c-0.26,0,0.813-0.476,1.418-1.003C105.954,15.226,104.894,15.813,104.745,15.814z"/>
						<path fill="#885018" d="M102.822-5.559c-1.727,0.165-3.46,0.666-4.392,1.304c-0.894,0.613-1.596,1.421-2.16,2.472
							c-0.548,1.016-0.875,2.238-1.013,3.43c0.041-0.046,0.087-0.086,0.142-0.119c0.133-1.166,0.448-2.251,0.991-3.256
							c0.558-1.039,1.334-1.898,2.217-2.502c0.918-0.628,2.513-1.079,4.223-1.241c0.991-0.094,2.277-0.121,3.48,0.064
							c0.297,0.027,0.595,0.073,0.883,0.148C105.892-5.623,104.314-5.7,102.822-5.559z"/>
						<path fill="#885018" d="M97.602,8.554c-0.032,0-0.061-0.027-0.063-0.06c-0.021-0.606-0.032-1.155-0.027-1.638
							c-0.013,0.008-0.024,0.008-0.039,0.008c-0.068,0-0.074-0.079-0.076-0.123c-0.03-0.506,0.068-2.069,0.429-3.383
							c0.008-0.034,0.042-0.053,0.076-0.044c0.032,0.009,0.053,0.043,0.042,0.077c-0.275,1.015-0.396,2.176-0.42,2.875
							c0-0.009,0.002-0.02,0.002-0.031c0.022-0.525,0.064-0.948,0.125-1.254c0.021-0.097,0.034-0.156,0.099-0.147
							c0.066,0.008,0.06,0.069,0.054,0.167c-0.014,0.2-0.066,0.654-0.122,1.056c-0.011,0.069-0.021,0.133-0.03,0.191
							c-0.022,0.611-0.019,1.367,0.016,2.243c0,0.034-0.028,0.063-0.063,0.063C97.604,8.554,97.604,8.554,97.602,8.554z"/>
						<path fill="#885018" d="M97.383,10.806c-0.028,0-0.053-0.019-0.063-0.046c-0.015-0.041-0.004-0.135,0.048-0.565
							c0.047-0.386,0.115-0.968,0.161-1.6c0.002-0.035,0.032-0.062,0.066-0.059c0.034,0.002,0.061,0.033,0.059,0.067
							c-0.047,0.635-0.115,1.219-0.161,1.605c-0.032,0.257-0.059,0.479-0.053,0.518c0.011,0.033-0.008,0.065-0.04,0.077
							C97.395,10.804,97.389,10.806,97.383,10.806z"/>
						<path fill="#F6BCC0" d="M108.851,16.858c-0.018,0-0.038-0.005-0.056-0.013c-0.208-0.1-0.646-0.135-0.799-0.139
							c-0.011-0.001-0.024-0.002-0.032-0.008c-0.008-0.001-0.678-0.208-1.298-0.291c-0.074-0.01-0.125-0.078-0.114-0.149
							c0.01-0.073,0.076-0.123,0.15-0.115c0.594,0.079,1.211,0.262,1.322,0.295c0.104,0.005,0.613,0.034,0.885,0.166
							c0.068,0.033,0.097,0.113,0.063,0.178C108.949,16.83,108.901,16.858,108.851,16.858z"/>
						<path fill="#E7AA79" d="M98.022,9.805c-0.013,0-0.021-0.002-0.032-0.009c-0.028-0.014-0.038-0.047-0.028-0.077
							c0.004-0.01,0.433-1.101,0.533-1.654c0.006-0.035,0.04-0.057,0.072-0.051c0.034,0.007,0.057,0.038,0.05,0.073
							c-0.056,0.319-0.215,0.798-0.346,1.164c0.085-0.155,0.159-0.328,0.184-0.484c0.004-0.035,0.036-0.059,0.07-0.054
							s0.058,0.037,0.052,0.071c-0.063,0.445-0.488,0.976-0.507,0.998C98.059,9.796,98.04,9.805,98.022,9.805z"/>
						
							<linearGradient id="SVGID_13_" gradientUnits="userSpaceOnUse" x1="375.4551" y1="-290.4438" x2="373.7254" y2="-289.915" gradientTransform="matrix(1 0 0 -1 -267 -278)">
							<stop  offset="0" style="stop-color:#FACFB5"/>
							<stop  offset="1" style="stop-color:#FCE9E1"/>
						</linearGradient>
						<path fill="url(#SVGID_13_)" d="M107.129,11.815c-0.228,0.162-0.35,0.404-0.35,0.404l0.885-0.066l0.607,0.167
							C108.271,12.32,108.336,11.975,107.129,11.815z"/>
						<path fill="#EA9A4F" d="M105.051,18c-0.012,0-0.024-0.004-0.036-0.011c-0.028-0.019-0.036-0.058-0.019-0.087
							c0.015-0.019,0.311-0.468,0.831-0.856c0.028-0.021,0.064-0.016,0.089,0.012c0.018,0.028,0.012,0.067-0.015,0.089
							c-0.501,0.373-0.796,0.819-0.798,0.824C105.091,17.99,105.071,18,105.051,18z"/>
						<path fill="#B16A2C" d="M106.111,20.625c-0.026,0-0.051-0.014-0.061-0.039c-0.243-0.59-0.282-1.226-0.264-1.733
							c-0.01,0.201-0.016,0.401-0.019,0.558c-0.006,0.342-0.008,0.369-0.078,0.375c-0.068,0.005-0.08-0.063-0.106-0.201
							c-0.11-0.591-0.01-1.22,0.317-1.979c0.015-0.032,0.053-0.047,0.083-0.032c0.032,0.013,0.048,0.05,0.034,0.083
							c-0.028,0.065-0.055,0.13-0.081,0.193c0.005,0.001,0.011,0.002,0.015,0.003c0.063,0.019,0.059,0.057,0.03,0.274
							c-0.059,0.446-0.195,1.495,0.185,2.412c0.015,0.032-0.002,0.069-0.034,0.082C106.127,20.624,106.117,20.625,106.111,20.625z"
							/>
						<path fill="#FDF0E1" d="M113.588,5.497c-0.006,0-0.014-0.001-0.021-0.005c-0.03-0.012-0.047-0.047-0.036-0.079
							c0.014-0.041,0.342-0.98-1.226-1.675c-0.032-0.014-0.044-0.051-0.032-0.083c0.015-0.032,0.053-0.046,0.085-0.032
							c1.678,0.745,1.295,1.822,1.289,1.833C113.639,5.481,113.614,5.497,113.588,5.497z"/>
						<path fill="#FDF0E1" d="M109.811,5.253c-0.026,0-0.053-0.008-0.076-0.024c-0.055-0.039-0.073-0.108-0.047-0.168
							c0.006-0.031,0.024-0.34-0.722-1.316c-0.045-0.058-0.032-0.142,0.025-0.187c0.059-0.045,0.144-0.034,0.186,0.025
							c0.881,1.149,0.813,1.51,0.742,1.611C109.893,5.233,109.851,5.253,109.811,5.253z"/>
						<path fill="#885018" d="M109.396,21.742c-0.004,0-0.054,0.058-0.058,0.057c-0.026-0.007,0.509-1.334,0.517-1.36l0.423-1.812
							c0.12-0.25,0.312-0.642,0.323-0.676c0.013-0.047,0.146-0.93,0.231-1.511l0.228-1.821c0.002-0.028,0.055-0.183,0.05-0.156
							l-0.181,1.991c-0.05,0.349-0.221,1.484-0.235,1.529c-0.016,0.044-0.271,0.573-0.324,0.678l-0.42,1.8
							C109.945,20.483,109.418,21.742,109.396,21.742z"/>
						<path fill="#EA9A4F" d="M105.389,15.6c-0.179,0,0.558-0.364,0.974-0.766C106.218,15.15,105.489,15.6,105.389,15.6z"/>
						<path fill="#EA9A4F" d="M104.32,14.662c-0.03,0.173,0.644-0.452,1.32-0.75C105.142,13.968,104.341,14.561,104.32,14.662z"/>
						<path fill="#EA9A4F" d="M105.021,14.331c-0.028,0.147,0.543-0.381,1.116-0.635C105.713,13.743,105.037,14.246,105.021,14.331z
							"/>
						<path fill="#4D1800" d="M102.716,28.682c0.031-0.003,0.063-0.005,0.096-0.001c0.007,0,0.011,0.002,0.019,0.002l-0.457-0.879
							c0-0.004-0.002-0.007-0.004-0.01l-4.198-5.092l-0.315-2.657c0-0.009-0.004-0.016-0.008-0.023
							c-0.656-0.953-1.413-1.936-2.01-2.907c-0.353-0.57-0.676-1.16-0.736-1.463c-0.125-0.586-0.262-1.491-0.228-2.008
							c0.752-1.205,1.044-4.814,1.044-4.825c0.473,0.052,0.767-0.305,0.668-0.283c-0.412,0.095-0.575,0.043-0.833-0.08
							c-0.283-0.137-0.573-0.371-0.847-1.39c-0.517-1.135-0.556-3.641-0.04-4.77c0.328-0.718,0.899-1.006,1.577-0.175
							c0.426,0.521,0.786,1.458,0.907,2.306c0.006,0.039,0.099,0.8,0.137,0.795c0.038-0.005,0.01-0.776,0.004-0.814
							C97.37,3.535,96.95,2.519,96.512,1.98c-0.915-1.106-1.579-0.492-1.926,0.707c-0.384,1.341-0.263,3.482,0.155,4.381
							c0.473,1.651,0.825,1.597,0.994,1.705c-0.038,0.427-0.36,3.674-1.051,4.777c-0.008,0.015-0.054,0.826,0.133,1.618
							c0.235,0.981,0.411,1.351,2.239,3.884l0.7,1.019l0.313,2.66c0.002,0.009,0.006,0.018,0.013,0.025l4.202,5.1L102.716,28.682z"
							/>
						<path fill="#BA856E" d="M106.077,12.626c-0.051-0.338,0.289-1.009,0.724-1.318c-0.342,0.478-0.567,1.001-0.517,1.248
							c0.08,0.411,0.332,0.5,0.524,0.566C106.372,13.233,106.113,12.875,106.077,12.626z"/>
					</g>
				</g>
			</g>
		</g>
		<path clip-path="url(#SVGID_2_)" fill-rule="evenodd" clip-rule="evenodd" fill="#F58466" d="M38.89,79
			c21.968,0,39.888-17.919,39.888-39.89c0-21.969-17.92-39.888-39.888-39.888C16.918-0.777-1,17.141-1,39.11
			C-1,61.081,16.918,79,38.89,79z"/>
		<path clip-path="url(#SVGID_2_)" fill-rule="evenodd" clip-rule="evenodd" fill="#2F1B2F" d="M17.924,16.785
			C17.65,8.976,22.678,3.089,29.86,0.323c0.157-0.06,0.317-0.12,0.479-0.179c2.754-0.601,4.705-0.921,8.549-0.921
			c3.844,0,9.014,0.935,13.24,2.459c5.711,4.913,10.226,10.826,10.589,21.659c0.071,2.065-0.217,5.604-0.526,7.699
			c-0.374,2.67-2.507,18.07-3.72,19.141C51.636,56.206,33.326,24.371,17.924,16.785z"/>
		<path clip-path="url(#SVGID_2_)" fill-rule="evenodd" clip-rule="evenodd" fill="#2F1B2F" d="M49.834,24.064
			C56.062,31.59,55,39.95,56.434,34.73c1.816-6.616,3.864-4.867,3.736-8.5c-0.379-8.46-3.885-16.579-10.962-21.62
			c-5.681-4.046-14.823-5.453-19.597-4.127C19.534,3.282,16.176,10.761,16.037,17.398c-0.066,3.222,2.667,10.688,2.651,10.324
			c-0.456-9.611,5.686-16.923,11.877-16.272C39.957,12.438,46.997,20.636,49.834,24.064z"/>
		<path clip-path="url(#SVGID_2_)" fill-rule="evenodd" clip-rule="evenodd" fill="#F5CDC4" d="M23.432,12.315
			c-7.701,2.635-4.947,14.708-5.31,20.185c-0.37,5.548-1.286,5.802,0.221,10.699c0.724,2.659,1.025,6.356,1.637,9.258
			c0.573,2.719,3.059,5.347,5.101,6.771c2.004,1.398,5.738,1.945,8.354,2.498l3.066,17.202C37.291,78.973,38.086,79,38.889,79
			c8.551,0,16.473-2.692,22.969-7.274c-3.603-2.341-5.272-17.052-5.357-26.252l-0.002-0.076c0.979-0.03,3.299-0.461,4.826-3.648
			c0.636-1.327,0.803-3.437,1.467-5.473c0.989-3.033-0.013-6.76-1.451-6.965c-1.8-0.257-3.648,2.772-4.874,4.332
			c-0.607,2.538-1.657,5.246-2.11,5.628c-1.728,1.452-2.612-10.429-2.858-12.056c-3.942-6.803-11.346-11.183-17.88-14.877
			C29.991,11.287,27.426,11.745,23.432,12.315z"/>
		<path clip-path="url(#SVGID_2_)" fill-rule="evenodd" clip-rule="evenodd" fill="#E8B5B1" d="M19.764,29.595
			c-1.534-0.275-1.463-1.39,0.702-1.438c2.595-0.06,7.631,1.193,8.863,4.3c0.533,1.333,0.357,8.837,0.354,8.855
			c-1.268,1.736-0.319,3.846,2.398,3.051c1.709-0.5,2.653-0.978,3.602-0.888c1.465,0.142,1.86,1.114-1.035,2.354
			c-1.149,0.493-2.319,0.978-2.646,2.072c-0.672-0.972-3.744,0.342-5.384-0.478c-1.174-0.589-1.868-2.317,0.568-5.987
			c0.048-1.145,0.178-6.057-0.216-7.045c-0.253-0.634-0.803-2.416-2.512-3.444C23.228,30.203,21.651,29.911,19.764,29.595z"/>
		<path clip-path="url(#SVGID_2_)" fill-rule="evenodd" clip-rule="evenodd" fill="#E8AFA8" d="M33.919,65.99
			c1.501,0.263,2.992,0.318,4.347-0.027c3.292-0.842,5.988-3.378,8.832-5.146c1.391-0.866,3.023-1.616,4.547-2.498
			c0.336-0.221,0.649-0.442,0.933-0.661c0.508-0.543,0.934-1.189,1.28-1.983c0.931-2.134,1.271-4.533,1.331-6.844
			c0.066-2.54-0.666-5.32-0.05-7.814c0.152-0.629,0.394-1.241,0.659-1.848c0.089-0.535,0.197-1.069,0.334-1.609
			c0.038-0.151,0.075-0.3,0.111-0.448c0.02-0.955,0.027-1.891,0.025-2.793l-1.963,3.42c0,0-1.475-0.077-0.698-9.09
			c-2.5-4.856-10.141-10.202-11.885-11.263c7.793,6.414,8.825,9.301,9.398,13.051c0.738,4.82-2.854,8.616-1.811,10.383
			c3.187,5.4,1.515,13.647-1.179,16.183c-3.566,3.359-8.019,3.028-12.244,3.352c-0.802,0.064-5.427,0.188-6.124,0.097
			c-2.104-0.283-4.814-1.489-7.31-3.48c-1.446-1.152,2.503,3.324,10.648,5.915L33.919,65.99z"/>
		<path clip-path="url(#SVGID_2_)" fill-rule="evenodd" clip-rule="evenodd" fill="#D88C88" d="M31.193,49.327
			c2.95-1.409,6.547,0.304,8.745,0.304c1.47,0-1.235,1.604-3.278,2.591c-1.922,0.929-5.373,1.565-7.302,0.651
			c-0.782-0.37-1.479-1.245-1.898-2.358l-0.928-0.574C27.688,48.81,29.576,48.468,31.193,49.327z"/>
		<path clip-path="url(#SVGID_2_)" fill-rule="evenodd" clip-rule="evenodd" fill="#E8B5B1" d="M25.469,51.052
			c-0.134,0-0.261-0.067-0.331-0.192c-0.169-0.298-0.293-1.022,0.312-1.854c0.127-0.172,0.371-0.212,0.543-0.087
			c0.173,0.127,0.21,0.371,0.086,0.543c-0.45,0.62-0.269,1.009-0.26,1.025c0.092,0.189,0.021,0.421-0.166,0.521
			C25.595,51.036,25.531,51.052,25.469,51.052z"/>
		<path clip-path="url(#SVGID_2_)" fill-rule="evenodd" clip-rule="evenodd" fill="#E8B5B1" d="M41.69,50.612
			c-0.241,0-0.437-0.172-0.438-0.388c-0.002-0.015-0.046-0.572-1.046-0.923c-0.227-0.082-0.336-0.306-0.245-0.506
			c0.09-0.2,0.35-0.298,0.571-0.219c1.575,0.557,1.599,1.601,1.599,1.644c0.002,0.214-0.192,0.39-0.438,0.392l0,0H41.69z"/>
		<path clip-path="url(#SVGID_2_)" fill-rule="evenodd" clip-rule="evenodd" fill="#E8B5B1" d="M37.231,56.149
			c-0.07,0-0.135-0.021-0.181-0.065c-0.114-0.11-2.809-2.62-7.3-0.139c-0.187,0.104-0.379,0.06-0.437-0.097
			c-0.056-0.153,0.047-0.362,0.232-0.464c4.972-2.746,8.035,0.135,8.064,0.163c0.117,0.11,0.084,0.32-0.07,0.469
			C37.447,56.104,37.332,56.149,37.231,56.149z"/>
		<path clip-path="url(#SVGID_2_)" fill-rule="evenodd" clip-rule="evenodd" fill="#E8AFA8" d="M58.409,40.621
			c-0.129,0-0.249-0.075-0.306-0.2c-0.074-0.168,0.002-0.365,0.171-0.441c0.01-0.005,1.093-0.494,1.145-1.292
			c0.045-0.653-0.619-1.417-1.915-2.208c-0.156-0.098-0.207-0.303-0.11-0.462c0.097-0.155,0.302-0.206,0.461-0.11
			c1.545,0.944,2.297,1.895,2.234,2.826c-0.082,1.203-1.484,1.833-1.545,1.859C58.502,40.612,58.456,40.621,58.409,40.621z"/>
		<path clip-path="url(#SVGID_2_)" fill-rule="evenodd" clip-rule="evenodd" fill="#E8B5B1" d="M26.968,35.942
			c0.025-0.088,0.188-1.071,0.068-1.333c-3.973-0.728-6.151,0.517-6.211,0.52c-0.378,0.015-0.564-0.237-0.582-0.608
			c-0.056-1.157,0.877-2.073,2.771-2.462c1.807-0.37,4.586-0.252,5.116,1.17c0.031,0.083,0.066,0.16,0.1,0.234
			c0.141,0.317,0.337,0.75,0.178,1.319c-0.519,1.862-1.959,3.095-4.535,3.884C20.451,39.713,26.702,36.897,26.968,35.942z"/>
		<path clip-path="url(#SVGID_2_)" fill-rule="evenodd" clip-rule="evenodd" fill="#E8AFA8" d="M57.17,39.243
			c-0.169,0-0.135-0.811-0.154-0.981c-0.288-2.423,0.957-6.367,4.045-7.47c0.173-0.063,0.744,0.058,0.807,0.232
			c0.063,0.174-0.406,0.336-0.581,0.399c-2.724,0.973-3.836,3.761-3.583,5.905c0.022,0.182,0.62,0.985-0.169,1.717
			C57.522,39.046,57.183,39.243,57.17,39.243z"/>
		<path clip-path="url(#SVGID_2_)" fill-rule="evenodd" clip-rule="evenodd" fill="#553C5D" d="M28.423,41.132
			c0.302-0.727,0.599-4.535,0.413-6.374c-0.098-0.977-0.916-2.025-1.745-2.808l0.045-0.05c0.95,0.809,1.955,1.868,2.071,2.754
			c0.18,1.783-0.223,5.519-0.575,6.368C28.5,41.322,28.293,41.445,28.423,41.132z"/>
		<path clip-path="url(#SVGID_2_)" fill-rule="evenodd" clip-rule="evenodd" fill="#553C5D" d="M35.922,78.793
			c-0.63-5.965-3.673-18.018-2.795-15.154c0.222,0.719,0.675,2.293,0.974,3.225C34.309,67.509,37.563,77.608,35.922,78.793z"/>
		<path clip-path="url(#SVGID_2_)" fill-rule="evenodd" clip-rule="evenodd" fill="#553C5D" d="M27.179,50.252
			c-0.221-0.173-0.574-0.129-1.499-0.087c-0.155,0.001-0.256-0.087-0.264-0.237c-0.007-0.146,0.096-0.186,0.25-0.194
			c1.061-0.047,1.258,0.089,1.6,0.355c0.29,0.229,1.521,0.567,3.564,0.634c2.433,0.075,4.113-0.314,5.823-0.612
			c0.541-0.095,1.041-0.207,1.508-0.313c1.196-0.269,2.468-0.488,3.429-0.232c0.431,0.211-0.03,0.585-0.183,0.545
			c-1.057-0.641-4.257,0.167-4.808,0.263c-1.371,0.241-2.94,0.892-4.92,0.857C30.424,51.208,28.277,50.765,27.179,50.252z"/>
		<path clip-path="url(#SVGID_2_)" fill-rule="evenodd" clip-rule="evenodd" fill="#E8B5B1" d="M44.302,48.918
			c-0.473-0.675-1.129-1.328-2.175-1.46c-1.951-1.379-2.236-5.225-7.212-5.804c-0.866-0.102-0.9-0.883-0.011-0.793
			c2.081,0.39,5.096,3.004,7.521,4.861C43.892,46.671,45.271,47.187,44.302,48.918z"/>
		<path clip-path="url(#SVGID_2_)" fill-rule="evenodd" clip-rule="evenodd" fill="#231F20" d="M61.854,40.758
			c1.446,6.502-0.157,11.739,5.322,16.259c3.279,2.707,3.891,4.632,3.295,6.461c-2.544,3.291-5.592,6.174-9.025,8.534
			c-1.708-1.93-3.638-5.107-4.101-9.883c-0.862-8.976-0.985-16.549-0.158-16.906l1.752-0.757L61.854,40.758z"/>
		<path clip-path="url(#SVGID_2_)" fill-rule="evenodd" clip-rule="evenodd" fill="#E8B5B1" d="M43.345,27.66
			c-4.192,0.295-6.481,0.295-7.76,1.398c-1.013,0.874-2.53,2.238-2.087,3.557c0.938,2.802,4.709,4.856,5.427,4.437
			c0.976-0.57-3.915-2.436-1.428-3.095c1.645-0.437,5.776-0.375,7.686,0.084c0.664,0.16,0.193-2.577-2.576-3.038
			C39.639,30.513,36.771,29.735,43.345,27.66z"/>
		<path clip-path="url(#SVGID_2_)" fill-rule="evenodd" clip-rule="evenodd" fill="#745376" d="M40.126,26.377
			c1.076-0.14,2.086-0.058,2.999,0.15c-1.623,0.443-2.619,0.977-3.703,1.481l-0.697,0.115c0.629-0.427,2.645-1.552,1.916-1.248
			l-3.76,1.335C37.316,27.7,38.395,26.854,40.126,26.377L40.126,26.377z M43.467,26.613l-0.08,0.021
			c-1.425,0.372-2.758,0.885-3.818,1.35c0.407-0.06,0.837-0.111,1.275-0.146c1.042-0.413,2.39-0.959,2.792-1.177
			C43.58,26.644,43.523,26.629,43.467,26.613L43.467,26.613z M43.896,26.741c-1.567,0.338-1.939,0.718-2.784,1.058
			c2.31-0.125,5.077,0.183,6.286,1.631C48.482,29.856,46.841,27.692,43.896,26.741L43.896,26.741z M38.556,28.152l1.8-1.164
			l-3.66,1.325c-0.068,0.135-0.042,0.36,0.078,0.315C37.113,28.5,37.905,28.29,38.556,28.152z"/>
		<path clip-path="url(#SVGID_2_)" fill-rule="evenodd" clip-rule="evenodd" fill="#E6E7E8" d="M22.76,32.784
			c-0.741,0.408-1.19,1.097-0.809,2.044l2.979,0.037C24.93,34.865,23.812,33.086,22.76,32.784z"/>
		<path clip-path="url(#SVGID_2_)" fill-rule="evenodd" clip-rule="evenodd" fill="#553C5D" d="M26.607,34.887
			c-0.93-0.016-2.136,0.049-3.076,0.089c-0.595-0.432-1.103-1.955-0.187-2.757c0.507-0.443,1.822-0.347,2.817,0.127
			C27.144,32.815,27.521,33.6,26.607,34.887z"/>
		<path clip-path="url(#SVGID_2_)" fill-rule="evenodd" clip-rule="evenodd" fill="#553C5D" d="M43.992,34.634
			c-0.019,0-0.036-0.003-0.057-0.006c-0.175-0.031-0.292-0.199-0.262-0.373c0.049-0.282-0.07-0.755-0.45-1.172
			c-0.605-0.67-1.676-0.987-3.018-0.884c-2.742,0.207-3.196,1.095-3.201,1.104l-0.493,0.816c-0.049,0.077-0.13,0.132-0.221,0.15
			c0,0-0.515,0.002-0.546-0.172c-0.03-0.176,0.371-0.235,0.371-0.235l0.392-0.756c0.025-0.078,0.478-1.313,3.652-1.553
			c1.978-0.144,3.018,0.514,3.542,1.096c0.562,0.617,0.682,1.291,0.607,1.715C44.283,34.521,44.146,34.634,43.992,34.634z"/>
		<path clip-path="url(#SVGID_2_)" fill-rule="evenodd" clip-rule="evenodd" fill="#281628" d="M21.05,34.701
			c-0.009,0-0.018,0-0.026-0.001c-0.095-0.014-0.162-0.104-0.146-0.198c0.311-2.089,2.17-2.759,3.861-2.604
			c1.914,0.175,2.816,1.355,2.977,2.479c0.013,0.095,0.233,0.231,0.137,0.245c-0.096,0.008-0.389-0.084-0.403-0.181
			c-0.142-0.993-1.033-2.15-2.759-2.308c-1.527-0.138-3.191,0.554-3.47,2.42C21.209,34.639,21.135,34.701,21.05,34.701z"/>
		<path clip-path="url(#SVGID_2_)" fill-rule="evenodd" clip-rule="evenodd" fill="#553C5D" d="M61.028,72.294
			c-0.393-0.539-0.75-1.11-1.076-1.731c-3.46-6.63-3.508-23.974-3.51-24.709c0-0.214-0.109-0.842,0.106-0.842
			c0.217,0,0.67,0.627,0.67,0.842c0,0.179,0.05,17.891,3.424,24.349c0.308,0.59,0.651,1.137,1.027,1.652
			C61.457,72.003,61.244,72.15,61.028,72.294z"/>
		<path clip-path="url(#SVGID_2_)" fill-rule="evenodd" clip-rule="evenodd" fill="#553C5D" d="M57.35,45.766
			c-0.22,0-0.445-0.025-0.675-0.078c-0.209-0.049-0.338-0.259-0.289-0.468c0.048-0.208,0.258-0.339,0.469-0.289
			c2.442,0.58,4.599-3.441,5.356-6.469c0.884-3.539,1.021-7.677-0.283-8.473c-0.718-0.437-3.41,0.946-5.518,3.878
			c-0.144-0.163,1.225-2.788,1.386-2.927c1.987-1.738,3.472-2.267,4.536-1.616c2.543,1.555,0.71,9.008,0.632,9.325
			C62.215,41.645,60.149,45.766,57.35,45.766z"/>
		<path clip-path="url(#SVGID_2_)" fill-rule="evenodd" clip-rule="evenodd" fill="#553C5D" d="M54.609,26.686
			c-4.071-6.498-17.784-19.089-34.274-16.613c-0.442,0.089-0.374-0.333,0.079-0.402c12.232-1.854,23.518,4.335,30.064,10.453
			c-2.359-3.137-6.727-7.14-9.351-9.562c-0.194-0.179,12.179,7.133,16.866,19.067C57.621,29.917,55.209,27.642,54.609,26.686z"/>
		<path clip-path="url(#SVGID_2_)" fill-rule="evenodd" clip-rule="evenodd" fill="#553C5D" d="M27.211,60.677
			c-8.694-4.565-6.88-8.81-8.966-17.072c-0.934-3.725-0.902-5.114-0.593-7.488c0.184-1.406,0.117-3.971,0.064-5.826l-0.021-0.706
			c-0.251-8.396-1.384-14.371,5.413-17.628c0.166-0.08,3.833-0.718,3.912-0.553c-1.283,0.318-3.148,0.602-3.316,0.682
			c-6.406,3.07-5.593,8.975-5.34,17.48l0.021,0.705c0.056,1.908-0.137,3.387-0.323,4.819c-0.302,2.31-0.329,3.999,0.574,7.601
			c2.27,9.052,0.436,13.722,10.205,18.379c1.935,1.097,7.78,0.997,11.053-0.063c2.42-0.563,5.055-1.319,7.554-2.459
			c2.301-1.051,4.98-4.726,6.139-9.234c-0.088,3.002-1.826,6.224-3.447,7.981c-1.725,1.866-5.303,3.007-8.69,3.941
			c-4.1,1.132-7.744,1.899-11.114,0.944C29.296,61.886,28.398,61.302,27.211,60.677z"/>
		<path clip-path="url(#SVGID_2_)" fill-rule="evenodd" clip-rule="evenodd" fill="#A97F99" d="M37.3,34.575l-0.265-0.146
			l-0.08-0.064c1.862,0.169,6.917,0.085,6.971,0.083c0.061-0.005,0.79-0.108,0.792-0.036C44.742,35.036,38.074,34.742,37.3,34.575z"
			/>
		<path clip-path="url(#SVGID_2_)" fill-rule="evenodd" clip-rule="evenodd" fill="#A97F99" d="M22.667,35.415
			c-1.411,0-1.745-0.657-1.49-0.581c0.598,0.185,1.295,0.141,2.49,0.045c1.244-0.098,2.654-0.21,3.749-0.034
			c0.167,0.028,0.202,0.237,0.02,0.217C25.603,34.763,24.186,35.415,22.667,35.415z"/>
		<path clip-path="url(#SVGID_2_)" fill-rule="evenodd" clip-rule="evenodd" fill="#6E5380" d="M23.491,32.57
			c-0.577,0.727-0.196,1.848,0.373,1.952c0.568,0.104,2.547,0.02,2.547,0.02s0.4-0.726,0.264-1.266
			c-0.137-0.54-0.696-0.362-0.696-0.362s0.068,1.048-0.95,1.048c-1.018,0-0.803-1.008-0.499-1.153
			C24.834,32.664,23.491,32.559,23.491,32.57z"/>
		<path clip-path="url(#SVGID_2_)" fill-rule="evenodd" clip-rule="evenodd" fill="#553C5D" d="M36.308,44.9
			c-0.1-0.001-0.514-0.077-0.569-0.153c-0.082-0.118,0.281-0.237,0.418-0.305c0.377-0.183,0.896-0.771,0.809-1.454
			c-0.094-0.738-0.745-1.416-2.102-1.826c-0.365-0.109-0.29-0.404,0.068-0.291c2.005,0.606,2.527,1.418,2.612,2.073
			c0.109,0.854-0.479,1.629-1.088,1.925C36.408,44.891,36.357,44.901,36.308,44.9z"/>
		<path clip-path="url(#SVGID_2_)" fill-rule="evenodd" clip-rule="evenodd" fill="#553C5D" d="M27.444,44.754
			c-0.038-0.033-0.938-0.689-0.208-2.421c0.133-0.312,0.407-0.26,0.275,0.056c-0.574,1.357-0.018,2.212,0.009,2.234
			C27.795,44.866,27.691,44.964,27.444,44.754z"/>
		<path clip-path="url(#SVGID_2_)" fill-rule="evenodd" clip-rule="evenodd" fill="#745376" d="M23.139,28.523
			c0.673,0.16,1.56,1.005,1.695,1.469l-3.227-1.735C21.955,28.294,22.412,28.349,23.139,28.523L23.139,28.523z M24.799,29.976
			c-1.004-0.537-2.584-1.268-3.533-1.76c-1.214-0.112-3.342-0.027-3.682,1.386c-0.082,0.348,0.063,2.373,0.447,2.418
			c-0.884-3.037,5.102-2.244,6.565-1.892C24.892,30.198,24.83,30.184,24.799,29.976z"/>
		
			<ellipse clip-path="url(#SVGID_2_)" fill-rule="evenodd" clip-rule="evenodd" fill="#281628" cx="24.858" cy="33.402" rx="1.066" ry="1.013"/>
		<path clip-path="url(#SVGID_2_)" fill-rule="evenodd" clip-rule="evenodd" fill="#281628" d="M19.893,34.021
			c0.975-0.323,0.69-0.963,1.943-1.676c1.1-0.624,2.651-0.697,4.481-0.104c0.418,0.134,0.577,0.629,0.156,0.491
			c-1.636-0.529-3.212-0.384-4.142,0.135c-0.931,0.524-1.187,1.359-1.196,1.396C20.999,34.426,18.866,34.336,19.893,34.021z"/>
		<path clip-path="url(#SVGID_2_)" fill-rule="evenodd" clip-rule="evenodd" fill="#281628" d="M19.983,33.443
			c0.17-0.049,0.659-0.232,0.811-0.337c-0.053-0.043-0.38-0.254-0.398-0.325c-0.083-0.327,5.319-1.502,3.574-0.626
			c-1.261,0.43-1.622,0.529-2.261,1.078C20.646,34.002,19.606,33.55,19.983,33.443z"/>
		<path clip-path="url(#SVGID_2_)" fill-rule="evenodd" clip-rule="evenodd" fill="#E6E7E8" d="M38.733,32.592
			c-0.38,0.116-1.132,0.413-1.501,0.869c-0.203,0.252-0.454,0.746-0.069,0.826c0.883,0.172,5.033,0.099,5.033,0.099
			S38.364,34.606,38.733,32.592z"/>
		<path clip-path="url(#SVGID_2_)" fill-rule="evenodd" clip-rule="evenodd" fill="#E8AFA8" d="M58.977,34.766
			c-0.022,0-0.038-0.003-0.046-0.003c-0.184-0.015-0.322-0.177-0.306-0.361c0.014-0.186,0.175-0.323,0.359-0.306
			c0.282,0.011,0.678-0.276,0.736-1.37c0.008-0.185,0.167-0.32,0.353-0.317c0.183,0.01,0.325,0.167,0.315,0.352
			c-0.042,0.786-0.258,1.358-0.644,1.696C59.43,34.736,59.098,34.766,58.977,34.766z"/>
		<path clip-path="url(#SVGID_2_)" fill-rule="evenodd" clip-rule="evenodd" fill="#553C5D" d="M41.385,31.742
			c0.89,0.016,1.362,0.424,1.592,0.985c0.251,0.623,0.042,1.468-0.474,1.762c-0.788-0.014-2.1-0.066-2.898-0.033
			c-0.67-0.664-0.738-1.724-0.374-2.24C39.595,31.698,40.396,31.723,41.385,31.742z"/>
		<path clip-path="url(#SVGID_2_)" fill-rule="evenodd" clip-rule="evenodd" fill="#6E5380" d="M39.633,32.365
			c-0.569,0.674-0.192,1.714,0.368,1.812c0.558,0.098,2.505,0.021,2.505,0.021s0.396-0.677,0.259-1.177
			c-0.135-0.5-0.684-0.337-0.684-0.337s0.068,0.974-0.934,0.974c-1.004,0-0.792-0.935-0.493-1.069
			C40.954,32.451,39.633,32.354,39.633,32.365z"/>
		
			<ellipse clip-path="url(#SVGID_2_)" fill-rule="evenodd" clip-rule="evenodd" fill="#281628" cx="41.164" cy="33.03" rx="0.959" ry="0.924"/>
		<path clip-path="url(#SVGID_2_)" fill-rule="evenodd" clip-rule="evenodd" fill="#553C5D" d="M29.091,45.342
			c0.453,0.176,0.837,0.326,1.334,0.339c0.555,0.012,1.098-0.055,1.542-0.155c0.049,0.014,0.099,0.022,0.15,0.022
			c0.213,0.005,0.597-0.18,0.79-0.262c0.192-0.081,3.97-0.232,2.101-0.86c-1.208-0.405-1.659-0.194-2.284,0.333
			c-1.026,0.55-2.268,1.372-4.246-0.284C28.192,44.185,26.843,44.913,29.091,45.342z"/>
		<path clip-path="url(#SVGID_2_)" fill-rule="evenodd" clip-rule="evenodd" fill="#281628" d="M43.996,33.877
			c0.042,0.005,0.121,0.422,0.159,0.457c0.179,0.17,0.422-0.027,0.623,0.11l0.571-0.218c-0.15-0.903-1.126-1.507-1.807-1.978
			c-1.221-0.847-2.878-0.826-4.436-0.602c-0.455,0.065-2.266,0.327-2.51,1.405c0.037,0.175,0.884-0.494,1.059-0.529
			c1.773-0.352,4.129-0.663,5.519,0.302C43.558,33.091,43.827,33.438,43.996,33.877z"/>
		<path clip-path="url(#SVGID_2_)" fill-rule="evenodd" clip-rule="evenodd" fill="#2F1B2F" d="M42.638,32.342
			c0.413-0.065,1.195,0.062,1.774-0.001c0.318-0.036,0.296,0.179-0.295,0.393c0.348,0.063,0.895,0.216,1.148,0.213
			c-0.427,0.267-0.941,0.369-1.427,0.338C43.569,32.961,43.017,32.537,42.638,32.342z"/>
		<path clip-path="url(#SVGID_2_)" fill-rule="evenodd" clip-rule="evenodd" fill="#2F1B2F" d="M44.887,33.928
			c-0.289-0.036-1.15-0.674-0.822-0.632c-0.195-0.036,1.197,0.144,1.691,0.144C46.235,33.439,45.332,33.981,44.887,33.928z"/>
		<path clip-path="url(#SVGID_2_)" fill-rule="evenodd" clip-rule="evenodd" fill="#2F1B2F" d="M42.897,32.41
			c-0.285-0.038-1.088-0.617-0.76-0.575c0.006,0.001,1.323,0.127,1.703,0.127C44.322,31.962,43.345,32.462,42.897,32.41z"/>
		<path clip-path="url(#SVGID_2_)" fill-rule="evenodd" clip-rule="evenodd" fill="#E8B5B1" d="M31.672,40.539
			c0.233,0.05,0.368,0.351,0.134,0.301c-0.662-0.146-1.865,0.008-1.868,0.008c-0.234,0.041,0.162-0.233,0.395-0.273
			C30.336,40.574,30.944,40.379,31.672,40.539z"/>
		<path clip-path="url(#SVGID_2_)" fill-rule="evenodd" clip-rule="evenodd" fill="#553C5D" d="M33.113,67.461
			c0.884-0.39,1.204-0.109,0.504,0.199c-5.055,2.233-7.856,8.201-7.864,8.217c-0.344,0.681-1.633,0.415-1.263-0.317
			C24.5,75.542,27.638,69.88,33.113,67.461z"/>
		<path clip-path="url(#SVGID_2_)" fill-rule="evenodd" clip-rule="evenodd" fill="#553C5D" d="M26.851,7.291
			c8.304-0.868,14.81,2.417,20.203,6.073c5.392,3.656-6.198-5.144-6.198-5.144l7.313,2.975c0,0-4.586-4.214-10.721-5.516
			c-6.134-1.3,0.249,0.744,0.249,0.744l-7.684-0.496l2.541,0.806C32.552,6.733,24.619,7.353,26.851,7.291z"/>
		
			<ellipse clip-path="url(#SVGID_2_)" fill-rule="evenodd" clip-rule="evenodd" fill="#FFFFFF" cx="23.466" cy="33.674" rx="0.456" ry="0.271"/>
		
			<ellipse clip-path="url(#SVGID_2_)" fill-rule="evenodd" clip-rule="evenodd" fill="#FFFFFF" cx="39.461" cy="33.293" rx="0.461" ry="0.247"/>
	</g>
</g>
</svg>
