<svg xmlns="http://www.w3.org/2000/svg" id="Layer_2" data-name="Layer 2" width="80" height="40" viewBox="0 0 80 40"><g xmlns="http://www.w3.org/2000/svg"  transform="translate(-92,-365)"><path fill-rule="evenodd" clip-rule="evenodd" fill="#167AC6" d="M92,364.5h80v40H92V364.5z"/><path fill="#FFFFFF" d="M113.727,381.161h-2.538v-1.551c0-0.582,0.414-0.719,0.705-0.719c0.292,0,1.792,0,1.792,0v-2.561 l-2.467-0.01c-2.739,0-3.362,1.911-3.362,3.133v1.707h-1.583v2.639h1.583c0,3.387,0,7.466,0,7.466h3.333c0,0,0-4.12,0-7.466h2.247 L113.727,381.161z"/><g><path fill="#E8E8E8" d="M130.511,385.91c0,0.691-0.25,1.23-0.752,1.617s-1.182,0.58-2.041,0.58c-0.931,0-1.647-0.12-2.148-0.359 v-0.881c0.322,0.136,0.673,0.243,1.053,0.322c0.379,0.078,0.755,0.117,1.128,0.117c0.609,0,1.067-0.115,1.375-0.346 c0.308-0.231,0.462-0.553,0.462-0.965c0-0.271-0.055-0.494-0.164-0.668c-0.109-0.174-0.292-0.334-0.548-0.48 c-0.256-0.147-0.645-0.313-1.168-0.5c-0.73-0.262-1.252-0.571-1.565-0.93c-0.313-0.357-0.47-0.825-0.47-1.401 c0-0.605,0.228-1.087,0.682-1.444c0.455-0.358,1.056-0.537,1.805-0.537c0.781,0,1.499,0.143,2.154,0.43l-0.285,0.795 c-0.648-0.272-1.278-0.408-1.891-0.408c-0.483,0-0.861,0.104-1.133,0.311c-0.272,0.208-0.408,0.496-0.408,0.865 c0,0.272,0.05,0.495,0.15,0.669s0.27,0.333,0.507,0.478c0.238,0.146,0.603,0.306,1.093,0.48c0.824,0.294,1.39,0.609,1.7,0.945 C130.356,384.937,130.511,385.373,130.511,385.91z"/><path fill="#E8E8E8" d="M138.079,388h-0.913v-3.695h-4.136V388h-0.913v-7.853h0.913v3.341h4.136v-3.341h0.913V388z"/><path fill="#E8E8E8" d="M145.168,388l-0.978-2.498h-3.147L140.077,388h-0.924l3.104-7.885h0.768l3.088,7.885H145.168z M143.906,384.681l-0.913-2.433c-0.118-0.309-0.24-0.687-0.365-1.134c-0.079,0.344-0.191,0.722-0.338,1.134l-0.924,2.433H143.906 z"/><path fill="#E8E8E8" d="M148.106,384.734V388h-0.913v-7.853h2.154c0.963,0,1.675,0.185,2.135,0.554 c0.46,0.368,0.69,0.924,0.69,1.664c0,1.039-0.526,1.74-1.579,2.105l2.132,3.529h-1.08l-1.901-3.266H148.106z M148.106,383.95 h1.251c0.645,0,1.117-0.128,1.418-0.384s0.451-0.641,0.451-1.152c0-0.52-0.153-0.894-0.459-1.123 c-0.306-0.229-0.797-0.344-1.474-0.344h-1.187V383.95z"/><path fill="#E8E8E8" d="M158.371,388h-4.377v-7.853h4.377v0.812h-3.464v2.529h3.255v0.806h-3.255v2.89h3.464V388z"/></g></g></svg>