<svg xmlns="http://www.w3.org/2000/svg" id="Layer_1" data-name="Layer 1" width="80" height="40" viewBox="0 0 80 40"><g  xmlns="http://www.w3.org/2000/svg" transform="translate(-11,-365)"><path fill-rule="evenodd" clip-rule="evenodd" fill="#642A45" d="M11,364.5h80v40H11V364.5z"/><g><path fill-rule="evenodd" clip-rule="evenodd" fill="#FFFFFF" d="M22.026,388.593v-10.398h-0.859v10.614v0.597v1.521v1.006 c0.277-0.194,0.563-0.38,0.859-0.559c0.18-0.107,0.363-0.213,0.549-0.313c0.28-0.152,0.566-0.298,0.86-0.437 c0.187-0.088,0.375-0.173,0.568-0.255c1.672-0.711,3.548-1.192,5.548-1.381l0.285-0.814l-0.07,0.002l0.071-0.005l0.21-0.601 l0.83-2.368c0.476,0.259,0.999,0.44,1.553,0.528l-0.637,1.817l-0.196,0.561l-0.013,0.036l-0.264,0.752l-0.773,2.209h0.56 c0.741-1.513,1.734-2.193,2.979-2.042l0.059,0.008c1.912,0.253,3.698,0.772,5.283,1.506c0.294,0.136,0.581,0.277,0.86,0.429 c0.211,0.113,0.418,0.23,0.621,0.352c0.296,0.177,0.583,0.362,0.859,0.556v-1.005v-1.509v-0.598v-10.439H40.91v10.226v0.597v1.22 c-0.204-0.111-0.411-0.22-0.621-0.323c-0.281-0.139-0.567-0.271-0.86-0.396c-1.869-0.802-3.979-1.329-6.23-1.509 c2.195,0.083,4.291,0.322,6.23,0.693c0.291,0.055,0.577,0.113,0.86,0.175v-0.597v-11.651h-0.86v10.417v1.059 c-1.406-0.269-2.893-0.468-4.44-0.588c1.612-0.563,2.929-0.76,3.952-0.588v-10.987c-1.44-0.188-2.682-0.08-3.725,0.322 c-0.612-0.275-1.292-0.43-2.006-0.43c-2.704,0-4.896,2.191-4.896,4.896c0,0.811,0.197,1.575,0.545,2.248 c-1.392-1.905-1.395-3.801-0.008-5.687c-0.736-0.882-2.344-1.336-4.824-1.361h-0.023v10.865c2.007-0.107,3.336,0.13,3.985,0.714 l0.006,0.005c-1.384,0.107-2.719,0.278-3.991,0.505c-0.191,0.033-0.38,0.069-0.568,0.106v-11.496h-0.86v11.674v0.596 c0.283-0.062,0.57-0.121,0.86-0.177c0.188-0.037,0.377-0.073,0.568-0.105c1.808-0.322,3.743-0.53,5.764-0.607 c-2.066,0.165-4.012,0.622-5.764,1.315c-0.192,0.077-0.381,0.155-0.568,0.236c-0.293,0.129-0.579,0.263-0.86,0.403 c-0.186,0.094-0.369,0.19-0.549,0.289v-1.229v-0.592V388.593L22.026,388.593z M32.697,384.972 c-0.561-0.07-1.087-0.253-1.555-0.525c-1.221-0.712-2.042-2.035-2.042-3.551c0-2.269,1.84-4.107,4.108-4.107 c0.942,0,1.81,0.317,2.502,0.851h0c0.21-0.229,0.427-0.454,0.651-0.659l0.152-0.148l0.006-0.006 c0.208-0.183,0.482-0.272,0.754-0.304c0.178-0.018,0.443,0.006,0.619,0.029l0.009,0.002l0.291,0.061l0.012,0.003 c0.221,0.068,0.438,0.208,0.438,0.467c0,0.224-0.258,0.479-0.405,0.634c-0.116,0.119-0.238,0.231-0.353,0.352l-0.624,0.649 c-0.122,0.123-0.241,0.25-0.359,0.38l0,0c0.265,0.543,0.414,1.152,0.414,1.798c0,2.269-1.839,4.107-4.107,4.107 C33.036,385.003,32.864,384.993,32.697,384.972L32.697,384.972z"/><path fill-rule="evenodd" clip-rule="evenodd" fill="#FFFFFF" d="M34.693,379.26c-0.39,0.482-0.721,0.938-1.091,1.416 l-0.375,0.515c-0.035,0.045-0.107,0.125-0.18,0.109c-0.161-0.033-0.357-0.873-0.478-1.117c-0.208-0.417-0.65-0.299-0.912-0.178 c-0.205,0.096-0.362,0.177-0.362,0.433c0,0.215,0.114,0.576,0.169,0.763c0.09,0.301,0.226,0.777,0.343,1.066 c0.069,0.171,0.208,0.529,0.356,0.629c0.102,0.069,0.463,0.141,0.612,0.171c0.249,0.052,0.46,0.024,0.572-0.092l0.157-0.209 c0.054-0.076,0.101-0.137,0.157-0.209c0.056-0.071,0.102-0.138,0.157-0.209c0.368-0.477,0.739-0.962,1.122-1.422l0.997-1.173 c0.33-0.372,0.775-0.888,1.122-1.236l0.619-0.646c0.141-0.146,0.68-0.641,0.68-0.788c0-0.089-0.099-0.15-0.236-0.192 l-0.268-0.057c-0.238-0.032-0.485-0.034-0.548-0.026c-0.226,0.025-0.44,0.097-0.596,0.232l-0.149,0.147 C36.023,377.679,35.176,378.663,34.693,379.26L34.693,379.26z"/></g><g><path fill="#E8E8E8" d="M55.042,388h-0.913v-3.695h-4.136V388H49.08v-7.853h0.913v3.341h4.136v-3.341h0.913V388z"/><path fill="#E8E8E8" d="M64.011,384.063c0,1.258-0.318,2.246-0.954,2.965c-0.635,0.721-1.519,1.08-2.65,1.08 c-1.157,0-2.049-0.354-2.678-1.061c-0.628-0.707-0.942-1.705-0.942-2.994c0-1.279,0.315-2.27,0.945-2.974 c0.63-0.703,1.525-1.056,2.686-1.056c1.128,0,2.009,0.358,2.643,1.074C63.694,381.814,64.011,382.803,64.011,384.063z M57.754,384.063c0,1.064,0.227,1.87,0.68,2.42c0.453,0.55,1.111,0.824,1.974,0.824c0.87,0,1.527-0.273,1.971-0.821 s0.666-1.355,0.666-2.423c0-1.056-0.221-1.857-0.664-2.403c-0.442-0.546-1.096-0.819-1.963-0.819 c-0.87,0-1.532,0.275-1.984,0.825C57.98,382.215,57.754,383.014,57.754,384.063z"/><path fill="#E8E8E8" d="M69.237,388l-2.664-6.961H66.53c0.05,0.552,0.075,1.207,0.075,1.966V388h-0.843v-7.853h1.375l2.487,6.478 h0.043l2.508-6.478h1.364V388h-0.913v-5.06c0-0.58,0.025-1.21,0.075-1.891h-0.043L69.973,388H69.237z"/><path fill="#E8E8E8" d="M80.071,388h-4.377v-7.853h4.377v0.812h-3.464v2.529h3.255v0.806h-3.255v2.89h3.464V388z"/></g></g></svg>