<svg xmlns="http://www.w3.org/2000/svg" id="Layer_4" data-name="Layer 4" width="80" height="40" viewBox="0 0 80 40"><g  xmlns="http://www.w3.org/2000/svg" transform="translate(-254,-365)"><path fill-rule="evenodd" clip-rule="evenodd" fill="#CB1F26" d="M254,364.5h80v40h-80V364.5z"/><g><path fill="#FFFFFF" d="M274.149,387.869c-1.207-0.093-1.715-0.692-2.662-1.268c-0.521,2.73-1.156,5.35-3.042,6.717 c-0.582-4.127,0.854-7.228,1.521-10.52c-1.136-1.912,0.137-5.766,2.534-4.816c2.952,1.168-2.555,7.117,1.142,7.859 c3.859,0.775,5.434-6.696,3.042-9.127c-3.458-3.508-10.065-0.08-9.252,4.943c0.199,1.229,1.466,1.601,0.507,3.295 c-2.213-0.488-2.874-2.234-2.789-4.562c0.138-3.81,3.422-6.475,6.718-6.845c4.167-0.467,8.078,1.529,8.619,5.449 C281.094,383.423,278.605,388.213,274.149,387.869L274.149,387.869z M274.149,387.869"/></g><g><path fill="#E8E8E8" d="M293.059,382.436c0,0.795-0.271,1.406-0.813,1.834c-0.543,0.428-1.319,0.643-2.329,0.643h-0.924V388 h-0.913v-7.853h2.036C292.078,380.147,293.059,380.91,293.059,382.436z M288.993,384.127h0.822c0.809,0,1.395-0.13,1.756-0.392 s0.542-0.681,0.542-1.257c0-0.52-0.17-0.906-0.51-1.16s-0.87-0.381-1.59-0.381h-1.021V384.127z"/><path fill="#E8E8E8" d="M294.702,388v-7.853h0.913V388H294.702z"/><path fill="#E8E8E8" d="M303.903,388h-1.042l-4.292-6.59h-0.043c0.057,0.773,0.086,1.482,0.086,2.127V388h-0.843v-7.853h1.031 l4.281,6.563h0.043c-0.007-0.097-0.023-0.407-0.048-0.932s-0.034-0.9-0.027-1.125v-4.507h0.854V388z"/><path fill="#E8E8E8" d="M308.919,388v-7.853h0.913V388H308.919z"/><path fill="#E8E8E8" d="M314.403,388h-0.913v-7.041h-2.487v-0.812h5.887v0.812h-2.487V388z"/></g></g></svg>