<svg id="Layer_1" data-name="Layer 1" xmlns="http://www.w3.org/2000/svg" width="322.95" height="60" viewBox="0 0 322.95 60"><defs><style>.cls-1{fill:#fff;fill-rule:evenodd;}</style></defs><title>random-facts</title><path class="cls-1" d="M3.24,47.43V8.26H0V60q1.56-1.1,3.24-2.1,1-.61,2.07-1.19,1.58-.86,3.24-1.64,1.05-.5,2.14-1a70.42,70.42,0,0,1,20.9-5.21l1.07-3.06h-.26l.27,0,.79-2.26,3.12-8.91a18.32,18.32,0,0,0,5.85,2L40,43.49l-.74,2.11,0,.13-1,2.83-2.91,8.32h2.11q4.19-8.54,11.22-7.69l.22,0a69.1,69.1,0,0,1,19.9,5.67q1.66.77,3.24,1.61,1.19.64,2.34,1.33,1.67,1,3.24,2.09v-51H74.35V54.24Q73.2,53.62,72,53q-1.58-.78-3.24-1.49a74.71,74.71,0,0,0-23.46-5.68,156.85,156.85,0,0,1,23.46,2.61q1.64.31,3.24.66V3H68.78V46.21A152.59,152.59,0,0,0,52.05,44q9.1-3.18,14.89-2.21V.4q-8.14-1.05-14,1.21A18.44,18.44,0,0,0,29,26.9q-7.87-10.76,0-21.42Q24.78.51,10.77.36h-.09V41.28Q22,40.67,25.69,44l0,0c-5.21.4-10.24,1-15,1.9l-2.14.4V3H5.31V49.2q1.6-.35,3.24-.67l2.14-.4a158.17,158.17,0,0,1,21.71-2.28,75.26,75.26,0,0,0-21.71,5q-1.08.43-2.14.89-1.65.72-3.24,1.52-1.05.53-2.07,1.09V47.43ZM43.42,33.79A15.47,15.47,0,1,1,54.77,6.17h0c.79-.86,1.61-1.71,2.45-2.48l.57-.56,0,0A5.12,5.12,0,0,1,60.66,2,11,11,0,0,1,63,2.07h0l1.09.23h0c.83.25,1.65.78,1.65,1.75s-1,1.81-1.53,2.39-.9.88-1.33,1.33l-2.35,2.45c-.46.46-.91.94-1.35,1.43h0A15.48,15.48,0,0,1,45.35,33.91a15.57,15.57,0,0,1-1.93-.12Z"/><path class="cls-1" d="M50.94,12.28c-1.47,1.81-2.71,3.53-4.11,5.33l-1.42,1.94c-.13.17-.4.47-.68.42-.6-.13-1.34-3.29-1.8-4.21-.78-1.57-2.45-1.13-3.44-.67-.77.36-1.36.67-1.36,1.63a12.66,12.66,0,0,0,.64,2.87c.34,1.13.85,2.93,1.29,4A6.41,6.41,0,0,0,41.42,26a10.37,10.37,0,0,0,2.31.64,2.33,2.33,0,0,0,2.15-.35l.59-.79c.21-.29.38-.51.59-.79s.38-.52.59-.79c1.38-1.79,2.78-3.62,4.23-5.35l3.75-4.42c1.24-1.4,2.92-3.34,4.22-4.66L62.18,7c.53-.55,2.56-2.41,2.56-3,0-.33-.37-.56-.89-.72l-1-.21A11.39,11.39,0,0,0,60.78,3a4.07,4.07,0,0,0-2.25.88L58,4.47a87.94,87.94,0,0,0-7,7.8Z"/><path class="cls-1" d="M87.61,14.85H99.84V13.27H86V33.82h1.58V24.56H99.42V23.06H87.61V14.85Zm33.74,19-9.2-20.55h-1.73l-9.2,20.55h1.7l2.23-5h12.25l2.26,5Zm-15.59-6.51,5.51-12.51,5.51,12.51ZM138.64,30a9.17,9.17,0,0,1-6.42,2.61c-5.92,0-9-4.16-9-9s3-9.15,9-9.15a9,9,0,0,1,6.39,2.61l1.08-.94a10.56,10.56,0,0,0-7.47-3.08c-7,0-10.61,5.13-10.55,10.61s3.63,10.38,10.55,10.38A10.56,10.56,0,0,0,139.7,31l-1.05-1Zm10.29,3.84h1.58V14.74h7.42V13.33H141.51v1.41h7.42V33.82Z"/><path class="cls-1" d="M179,33.55l-6.21-7c3.9-.79,5.19-3.63,5.19-6.46,0-3.56-2.55-6.79-7.39-6.81-3.25,0-6.51,0-9.76,0V33.82h3.87V27h3.72l6,6.86H179v-.26Zm-8.41-16.68a3.3,3.3,0,1,1,0,6.6h-5.89v-6.6ZM195.91,30H184.4V25.38H195.5V21.77H184.4V17h11.52V13.27H180.56c0,6.85,0,13.72,0,20.55h15.36V30Zm9.5,3.81h3.87v-17h6.51V13.27H198.9v3.52h6.51v17Zm30.92-.26-6.21-7c3.9-.79,5.19-3.63,5.19-6.46,0-3.56-2.55-6.79-7.39-6.81-3.25,0-6.51,0-9.76,0V33.82H222V27h3.72l6,6.86h4.6v-.26Zm-8.41-16.68a3.3,3.3,0,1,1,0,6.6H222v-6.6Zm13.86,16.94V13.27h-3.84V33.82ZM260.72,30H249.2V25.38h11.11V21.77H249.2V17h11.52V13.27H245.36V33.82h15.36V30Zm23-16.74h-4.34l-6.21,16-6.18-16h-4.34l8.53,20.63h4l8.53-20.63ZM301.37,30H289.85V25.38H301V21.77H289.85V17h11.52V13.27H286c0,6.85,0,13.72,0,20.55h15.36V30Zm21.19,3.55-6.21-7c3.9-.79,5.19-3.63,5.19-6.46,0-3.56-2.55-6.79-7.39-6.81-3.25,0-6.51,0-9.76,0V33.82h3.87V27H312l6,6.86h4.6v-.26Zm-8.41-16.68a3.3,3.3,0,1,1,0,6.6h-5.89v-6.6Z"/><path class="cls-1" d="M85.56,52.27V43.45h1v8.82Zm4.59,0V46.76H91v.85a2.26,2.26,0,0,1,.82-.79A2.3,2.3,0,0,1,93,46.56a2,2,0,0,1,1.46.52,1.93,1.93,0,0,1,.53,1.44v3.75H94V49a1.92,1.92,0,0,0-.34-1.24,1.28,1.28,0,0,0-1-.41,1.73,1.73,0,0,0-.74.15,1.48,1.48,0,0,0-.55.44,1.38,1.38,0,0,0-.24.49,4.31,4.31,0,0,0-.07,1v2.85Zm8.36-4.74h-1v-.78h1V44.53h.92v2.22h1v.78h-1v4.74h-.92V47.53Zm8.3,1.36a1.62,1.62,0,0,0-.47-1.12,1.6,1.6,0,0,0-1.14-.39,1.54,1.54,0,0,0-1.1.41,1.67,1.67,0,0,0-.51,1.1Zm1,.76h-4.19v.08a2.07,2.07,0,0,0,.48,1.43,1.61,1.61,0,0,0,1.26.54,1.63,1.63,0,0,0,1-.3,2.54,2.54,0,0,0,.76-.9l.69.48a2.85,2.85,0,0,1-1,1.13,2.68,2.68,0,0,1-1.43.38,2.5,2.5,0,0,1-2-.83,3.15,3.15,0,0,1-.74-2.18,3.06,3.06,0,0,1,.74-2.12,2.44,2.44,0,0,1,1.9-.82,2.34,2.34,0,0,1,1.86.78,3.14,3.14,0,0,1,.68,2.14v.19Zm3,2.62V46.76h.81V47.9a2.9,2.9,0,0,1,.77-1,1.62,1.62,0,0,1,1-.31l.31,0,.3.08-.3.86-.3-.08-.27,0A1.2,1.2,0,0,0,112,48a3,3,0,0,0-.36,1.62v2.69Zm9.52-3.38a1.62,1.62,0,0,0-.47-1.12,1.6,1.6,0,0,0-1.14-.39,1.54,1.54,0,0,0-1.1.41,1.67,1.67,0,0,0-.51,1.1Zm1,.76h-4.19v.08a2.07,2.07,0,0,0,.48,1.43,1.61,1.61,0,0,0,1.27.54,1.63,1.63,0,0,0,1-.3,2.54,2.54,0,0,0,.76-.9l.69.48a2.85,2.85,0,0,1-1,1.13,2.68,2.68,0,0,1-1.43.38,2.5,2.5,0,0,1-2-.83,3.15,3.15,0,0,1-.74-2.18,3.06,3.06,0,0,1,.74-2.12,2.44,2.44,0,0,1,1.9-.82,2.34,2.34,0,0,1,1.86.78,3.14,3.14,0,0,1,.68,2.14v.19Zm2.44,1.69.77-.54a1.61,1.61,0,0,0,.55.66,1.41,1.41,0,0,0,.79.22,1.09,1.09,0,0,0,.72-.23.74.74,0,0,0,.27-.6.67.67,0,0,0-.19-.48A1.72,1.72,0,0,0,126,50l-.15-.06q-1.93-.69-1.93-1.74a1.54,1.54,0,0,1,.52-1.2,2,2,0,0,1,1.35-.46,2.29,2.29,0,0,1,1.18.29,1.62,1.62,0,0,1,.7.81l-.73.47a1.27,1.27,0,0,0-.48-.58,1.3,1.3,0,0,0-.73-.21.92.92,0,0,0-.65.23.77.77,0,0,0-.25.59q0,.51,1.05.85l.31.1a2.88,2.88,0,0,1,1.2.66,1.39,1.39,0,0,1,.34,1,1.63,1.63,0,0,1-.53,1.27,2,2,0,0,1-1.39.49,2.53,2.53,0,0,1-1.26-.29,2.1,2.1,0,0,1-.83-.87Zm7.15-3.81h-1v-.78h1V44.53h.92v2.22h1v.78h-1v4.74h-.92V47.53Zm4.39-3.43a.69.69,0,0,1,.19-.49.64.64,0,0,1,.47-.2.62.62,0,0,1,.47.21.69.69,0,0,1,.19.49.67.67,0,0,1-.19.48.62.62,0,0,1-.47.2.64.64,0,0,1-.47-.2.69.69,0,0,1-.19-.5Zm.21,8.17V46.76h.91v5.51Zm4.45,0V46.76h.89v.85a2.25,2.25,0,0,1,.82-.79,2.3,2.3,0,0,1,1.11-.26,2,2,0,0,1,1.46.52,1.93,1.93,0,0,1,.53,1.44v3.75h-.92V49a1.92,1.92,0,0,0-.34-1.24,1.28,1.28,0,0,0-1-.41,1.73,1.73,0,0,0-.74.15,1.48,1.48,0,0,0-.55.44,1.37,1.37,0,0,0-.24.49,4.29,4.29,0,0,0-.07,1v2.85Zm12.26-2.74a2.22,2.22,0,0,0-.48-1.49,1.76,1.76,0,0,0-2.55,0,2.16,2.16,0,0,0-.46,1.46,2.31,2.31,0,0,0,.46,1.54,1.61,1.61,0,0,0,1.3.54,1.58,1.58,0,0,0,1.27-.53,2.2,2.2,0,0,0,.46-1.48Zm.88-2.78v5.42a4.94,4.94,0,0,1-.12,1.28,1.81,1.81,0,0,1-.38.68,2.27,2.27,0,0,1-.9.62,3.37,3.37,0,0,1-1.23.21,2.8,2.8,0,0,1-1.87-.57,2.1,2.1,0,0,1-.7-1.62h1v.07a1.17,1.17,0,0,0,.41,1,1.78,1.78,0,0,0,1.16.34,2.16,2.16,0,0,0,.93-.18,1.3,1.3,0,0,0,.59-.55,1.44,1.44,0,0,0,.17-.48,4.27,4.27,0,0,0,.05-.78v-.93a2.33,2.33,0,0,1-.8.9,2,2,0,0,1-1.12.31,2.3,2.3,0,0,1-1.83-.81,3.69,3.69,0,0,1,0-4.28,2.25,2.25,0,0,1,1.81-.79,2,2,0,0,1,1.94,1.23v-1Zm7.19,5.51V47.53h-1v-.78h1v-1.6a3.56,3.56,0,0,1,.33-1.86,1.34,1.34,0,0,1,1.19-.48,2.61,2.61,0,0,1,.41,0,1.93,1.93,0,0,1,.37.09v1a1.36,1.36,0,0,0-.35-.15,1.4,1.4,0,0,0-.36,0,.58.58,0,0,0-.55.27,3.38,3.38,0,0,0-.15,1.3v1.47h1.41v.78h-1.38v4.74Zm8.86-2.7a2.23,2.23,0,0,0-.49-1.5,1.75,1.75,0,0,0-2.54,0,2.15,2.15,0,0,0-.46,1.46,2.32,2.32,0,0,0,.46,1.54,1.61,1.61,0,0,0,1.3.54,1.59,1.59,0,0,0,1.27-.53,2.17,2.17,0,0,0,.46-1.47Zm.88-2.81v5.51h-.88v-1a2.36,2.36,0,0,1-.81.92,2,2,0,0,1-1.11.32,2.29,2.29,0,0,1-1.83-.82,3.76,3.76,0,0,1,0-4.33,2.24,2.24,0,0,1,1.81-.8,2.09,2.09,0,0,1,1.15.31,2.21,2.21,0,0,1,.79.93v-1Zm7.5,4.21v1.1a2.78,2.78,0,0,1-.81.33,4,4,0,0,1-1,.11,2.55,2.55,0,0,1-2-.81,3,3,0,0,1-.75-2.13,3.06,3.06,0,0,1,.77-2.16,2.57,2.57,0,0,1,2-.84,3.85,3.85,0,0,1,.86.1,3.38,3.38,0,0,1,.79.28v1a2.93,2.93,0,0,0-.72-.36,2.35,2.35,0,0,0-.75-.12,1.84,1.84,0,0,0-1.43.58,2.18,2.18,0,0,0-.54,1.54,2,2,0,0,0,.54,1.42,1.79,1.79,0,0,0,1.35.57,2.22,2.22,0,0,0,.8-.15,3.46,3.46,0,0,0,.83-.48Zm3-3.43h-1v-.78h1V44.53h.92v2.22h1v.78h-1v4.74h-.92V47.53Zm4,3.81.77-.54a1.61,1.61,0,0,0,.55.66,1.41,1.41,0,0,0,.79.22,1.09,1.09,0,0,0,.72-.23.74.74,0,0,0,.27-.6.67.67,0,0,0-.19-.48,1.72,1.72,0,0,0-.64-.35l-.15-.06q-1.93-.69-1.93-1.74a1.54,1.54,0,0,1,.52-1.2,2,2,0,0,1,1.35-.46,2.3,2.3,0,0,1,1.18.29,1.62,1.62,0,0,1,.7.81l-.73.47a1.27,1.27,0,0,0-.48-.58,1.3,1.3,0,0,0-.73-.21.93.93,0,0,0-.65.23.77.77,0,0,0-.25.59q0,.51,1.05.85l.31.1a2.87,2.87,0,0,1,1.2.66,1.39,1.39,0,0,1,.34,1A1.63,1.63,0,0,1,188,52a2,2,0,0,1-1.39.49,2.53,2.53,0,0,1-1.26-.29,2.1,2.1,0,0,1-.83-.87Zm10.73.93V47.53h-1v-.78h1v-1.6a3.56,3.56,0,0,1,.33-1.86,1.34,1.34,0,0,1,1.19-.48,2.61,2.61,0,0,1,.41,0,1.92,1.92,0,0,1,.37.09v1a1.35,1.35,0,0,0-.35-.15,1.4,1.4,0,0,0-.36,0,.58.58,0,0,0-.55.27,3.37,3.37,0,0,0-.15,1.3v1.47h1.41v.78h-1.38v4.74Zm5.35-2.74a2.1,2.1,0,0,0,.56,1.48,1.78,1.78,0,0,0,1.36.61,1.76,1.76,0,0,0,1.35-.61,2.25,2.25,0,0,0,0-3,1.76,1.76,0,0,0-1.35-.61,1.78,1.78,0,0,0-1.36.61,2.1,2.1,0,0,0-.56,1.48Zm-1,0a3.1,3.1,0,0,1,.21-1.15,3,3,0,0,1,.62-1,2.79,2.79,0,0,1,2-.86,2.74,2.74,0,0,1,1.09.22,3,3,0,0,1,.94.65,2.84,2.84,0,0,1,.62,1,3.08,3.08,0,0,1,.21,1.14,3,3,0,0,1-.21,1.14,2.84,2.84,0,0,1-.62.95,3,3,0,0,1-.94.66,2.69,2.69,0,0,1-1.09.23,2.77,2.77,0,0,1-1.11-.23,2.88,2.88,0,0,1-.93-.65,3.09,3.09,0,0,1-.62-1,3,3,0,0,1-.21-1.14Zm8.8,2.74V46.76h.81V47.9a2.9,2.9,0,0,1,.77-1,1.62,1.62,0,0,1,1-.31l.31,0,.3.08-.3.86-.3-.08-.27,0a1.2,1.2,0,0,0-1.07.54,3,3,0,0,0-.36,1.62v2.69Zm9.4-4.74h-1v-.78h1V44.53h.92v2.22h1v.78h-1v4.74h-.92V47.53Zm4.55,4.74V42.93h.89v4.68a2.25,2.25,0,0,1,.82-.79,2.3,2.3,0,0,1,1.11-.26,2,2,0,0,1,1.46.52,1.93,1.93,0,0,1,.53,1.44v3.75h-.92V49a1.92,1.92,0,0,0-.34-1.24,1.28,1.28,0,0,0-1-.41,1.73,1.73,0,0,0-.74.15,1.48,1.48,0,0,0-.55.44,1.37,1.37,0,0,0-.24.49,4.3,4.3,0,0,0-.07,1v2.85Zm12-3.38a1.61,1.61,0,0,0-.47-1.12,1.6,1.6,0,0,0-1.14-.39,1.54,1.54,0,0,0-1.1.41,1.67,1.67,0,0,0-.51,1.1Zm1,.76h-4.19v.08a2.07,2.07,0,0,0,.48,1.43,1.61,1.61,0,0,0,1.27.54,1.63,1.63,0,0,0,1-.3,2.54,2.54,0,0,0,.76-.9l.69.48a2.85,2.85,0,0,1-1,1.13,2.68,2.68,0,0,1-1.43.38,2.5,2.5,0,0,1-2-.83,3.15,3.15,0,0,1-.74-2.18,3.06,3.06,0,0,1,.74-2.12,2.44,2.44,0,0,1,1.9-.82,2.34,2.34,0,0,1,1.86.78,3.14,3.14,0,0,1,.68,2.14v.19ZM245.84,51v1.1a2.78,2.78,0,0,1-.81.33,4,4,0,0,1-1,.11,2.55,2.55,0,0,1-2-.81,3,3,0,0,1-.75-2.13,3.07,3.07,0,0,1,.77-2.16,2.57,2.57,0,0,1,2-.84,3.84,3.84,0,0,1,.86.1,3.38,3.38,0,0,1,.79.28v1a2.92,2.92,0,0,0-.72-.36,2.36,2.36,0,0,0-.75-.12,1.84,1.84,0,0,0-1.43.58,2.18,2.18,0,0,0-.54,1.54,2,2,0,0,0,.54,1.42,1.79,1.79,0,0,0,1.35.57,2.22,2.22,0,0,0,.8-.15,3.45,3.45,0,0,0,.83-.48Zm3.74-4.21v2.71a3,3,0,0,0,.34,1.66,1.61,1.61,0,0,0,2.28,0,3,3,0,0,0,.33-1.67V46.76h.92V50a2.64,2.64,0,0,1-.61,1.89,2.83,2.83,0,0,1-3.59,0,2.64,2.64,0,0,1-.61-1.89V46.76Zm7.26,5.51V46.76h.81V47.9a2.9,2.9,0,0,1,.77-1,1.62,1.62,0,0,1,1-.31l.31,0,.3.08-.3.86-.3-.08-.27,0a1.2,1.2,0,0,0-1.07.54,3,3,0,0,0-.36,1.62v2.69Zm5.61-8.17a.69.69,0,0,1,.19-.49.64.64,0,0,1,.47-.2.62.62,0,0,1,.46.21.69.69,0,0,1,.19.49.67.67,0,0,1-.19.48.62.62,0,0,1-.47.2.64.64,0,0,1-.47-.2.69.69,0,0,1-.19-.5Zm.21,8.17V46.76h.91v5.51Zm5-2.74A2.1,2.1,0,0,0,268.2,51a1.78,1.78,0,0,0,1.36.61,1.76,1.76,0,0,0,1.35-.61,2.25,2.25,0,0,0,0-3,1.76,1.76,0,0,0-1.35-.61,1.78,1.78,0,0,0-1.36.61,2.1,2.1,0,0,0-.56,1.48Zm-1,0a3.1,3.1,0,0,1,.21-1.15,2.94,2.94,0,0,1,.62-1,2.79,2.79,0,0,1,2-.86,2.74,2.74,0,0,1,1.09.22,3,3,0,0,1,.94.65,2.84,2.84,0,0,1,.62,1,3.08,3.08,0,0,1,.21,1.14,3,3,0,0,1-.21,1.14,2.84,2.84,0,0,1-.62.95,3,3,0,0,1-.94.66,2.69,2.69,0,0,1-1.09.23,2.77,2.77,0,0,1-1.11-.23,2.88,2.88,0,0,1-.93-.65,3.09,3.09,0,0,1-.62-1,3,3,0,0,1-.21-1.14Zm9.64-2.77v2.71a3,3,0,0,0,.34,1.66,1.61,1.61,0,0,0,2.28,0,3,3,0,0,0,.33-1.67V46.76h.92V50a2.64,2.64,0,0,1-.61,1.89,2.83,2.83,0,0,1-3.59,0,2.64,2.64,0,0,1-.61-1.89V46.76ZM283,51.34l.77-.54a1.61,1.61,0,0,0,.55.66,1.41,1.41,0,0,0,.79.22,1.09,1.09,0,0,0,.72-.23.74.74,0,0,0,.27-.6.67.67,0,0,0-.19-.48,1.72,1.72,0,0,0-.64-.35l-.15-.06q-1.93-.69-1.93-1.74a1.54,1.54,0,0,1,.52-1.2,2,2,0,0,1,1.35-.46,2.29,2.29,0,0,1,1.18.29,1.62,1.62,0,0,1,.7.81l-.73.47a1.27,1.27,0,0,0-.48-.58,1.3,1.3,0,0,0-.73-.21.92.92,0,0,0-.65.23.77.77,0,0,0-.25.59q0,.51,1.05.85l.31.1a2.88,2.88,0,0,1,1.2.66,1.39,1.39,0,0,1,.34,1,1.63,1.63,0,0,1-.53,1.27,2,2,0,0,1-1.39.49,2.53,2.53,0,0,1-1.26-.29,2.1,2.1,0,0,1-.83-.87Zm17.85.93V49a2,2,0,0,0-.32-1.24,1.19,1.19,0,0,0-1-.41,1.48,1.48,0,0,0-.67.15,1.36,1.36,0,0,0-.75.94,4.62,4.62,0,0,0-.07,1v2.85h-.87V49a2,2,0,0,0-.32-1.24,1.19,1.19,0,0,0-1-.41,1.52,1.52,0,0,0-.68.15,1.47,1.47,0,0,0-.53.44,1.43,1.43,0,0,0-.21.49,4.73,4.73,0,0,0-.07,1v2.85h-.87V46.76h.89v.85a2.23,2.23,0,0,1,.78-.79,2.09,2.09,0,0,1,1.05-.26,2,2,0,0,1,1.09.29,1.79,1.79,0,0,1,.68.83,2.38,2.38,0,0,1,.8-.84,2.07,2.07,0,0,1,1.08-.28,1.82,1.82,0,0,1,1.38.52,2,2,0,0,1,.5,1.44v3.75ZM305,44.1a.68.68,0,0,1,.19-.49.64.64,0,0,1,.47-.2.62.62,0,0,1,.46.21.69.69,0,0,1,.19.49.67.67,0,0,1-.19.48.62.62,0,0,1-.47.2.64.64,0,0,1-.47-.2.68.68,0,0,1-.19-.5Zm.21,8.17V46.76h.91v5.51Zm4.45,0V46.76h.89v.85a2.25,2.25,0,0,1,.82-.79,2.3,2.3,0,0,1,1.11-.26,2,2,0,0,1,1.46.52,1.93,1.93,0,0,1,.53,1.44v3.75h-.92V49a1.92,1.92,0,0,0-.34-1.24,1.28,1.28,0,0,0-1-.41,1.73,1.73,0,0,0-.74.15,1.48,1.48,0,0,0-.55.44,1.38,1.38,0,0,0-.24.49,4.32,4.32,0,0,0-.07,1v2.85Zm12.26-2.73a2.18,2.18,0,0,0-.49-1.48,1.63,1.63,0,0,0-1.29-.56,1.58,1.58,0,0,0-1.25.51,2.06,2.06,0,0,0-.45,1.41,2.5,2.5,0,0,0,.46,1.59,1.52,1.52,0,0,0,1.26.58,1.63,1.63,0,0,0,1.3-.54,2.22,2.22,0,0,0,.47-1.5Zm.88-6.61v9.34h-.88v-1a2.35,2.35,0,0,1-.81.91,2,2,0,0,1-1.11.32,2.29,2.29,0,0,1-1.83-.82,3.74,3.74,0,0,1,0-4.32,2.25,2.25,0,0,1,1.81-.81,2.07,2.07,0,0,1,1.14.31,2.23,2.23,0,0,1,.78.93V42.93Z"/><polygon class="cls-1" points="85.39 38.28 322.95 38.28 322.95 39.63 85.39 39.63 85.39 38.28 85.39 38.28"/></svg>