<svg xmlns="http://www.w3.org/2000/svg" id="Layer_3" data-name="Layer 3" width="80" height="40" viewBox="0 0 80 40"><g xmlns="http://www.w3.org/2000/svg"  transform="translate(-173,-365)"><path fill-rule="evenodd" clip-rule="evenodd" fill="#41B7D8" d="M173,364.5h80v40h-80V364.5z"/><path fill="#FFFFFF" d="M195.616,379.841c-0.011-0.005-0.021-0.016-0.033-0.024c-0.624-0.518-1.356-0.766-2.198-0.735 l-0.025-0.054c0.005-0.004,0.01-0.004,0.015-0.004c0.765-0.156,1.216-0.315,1.352-0.49c0.046-0.141-0.01-0.217-0.177-0.236 c-0.385,0.043-0.738,0.116-1.056,0.227c0.401-0.227,0.556-0.387,0.468-0.469c-0.394,0.01-0.821,0.189-1.268,0.543 c0.166-0.254,0.229-0.389,0.188-0.413c-0.213,0.132-0.4,0.272-0.561,0.422c-0.338,0.334-0.608,0.644-0.816,0.925l-0.01,0.023 c-0.535,0.77-0.91,1.545-1.132,2.334l-0.083,0.059l-0.016,0.014c-0.323-0.358-0.707-0.656-1.169-0.901 c-0.546-0.314-1.186-0.614-1.923-0.904c-0.806-0.368-1.622-0.673-2.449-0.911c-0.005,0.82,0.447,1.473,1.346,1.947v0.015 c-0.316-0.006-0.624,0.039-0.919,0.121c0.056,0.761,0.665,1.283,1.818,1.573l-0.005,0.014c-0.452-0.022-0.827,0.117-1.116,0.408 c0.378,0.658,1.049,0.973,2.021,0.948c-0.193,0.087-0.344,0.183-0.442,0.292c-0.177,0.163-0.234,0.357-0.177,0.58 c0.208,0.334,0.583,0.488,1.133,0.465l0,0l0.031,0.033c-0.005,0.005-0.01,0.01-0.016,0.014c-0.952,0.872-2.1,1.264-3.446,1.182 l-0.02,0.01c-0.821-0.004-1.7-0.354-2.651-1.051c0.957,1.221,2.225,2.103,3.795,2.654c1.797,0.528,3.595,0.566,5.389,0.115h0.03 c1.741-0.445,3.217-1.36,4.434-2.744c0.56-0.726,0.914-1.418,1.055-2.082c0.909,0.029,1.564-0.203,1.97-0.697l-0.01-0.016 c-0.302,0.098-0.895,0.068-1.773-0.092v-0.086c0-0.005,0-0.005,0.006,0c0.961-0.096,1.528-0.372,1.709-0.828 c-0.671,0.232-1.331,0.236-1.986,0.02C196.779,381.235,196.353,380.504,195.616,379.841z"/><g><path fill="#E8E8E8" d="M209.497,388h-0.913v-7.041h-2.487v-0.812h5.887v0.812h-2.487V388z"/><path fill="#E8E8E8" d="M220.019,388h-0.902l-1.584-5.258c-0.075-0.233-0.159-0.527-0.252-0.881 c-0.093-0.355-0.142-0.568-0.145-0.64c-0.079,0.473-0.204,0.99-0.376,1.552L215.222,388h-0.902l-2.089-7.853h0.967l1.241,4.851 c0.172,0.68,0.297,1.296,0.376,1.848c0.097-0.656,0.24-1.297,0.43-1.924l1.407-4.774h0.967l1.477,4.817 c0.172,0.556,0.317,1.182,0.435,1.881c0.068-0.509,0.197-1.129,0.387-1.859l1.235-4.839h0.967L220.019,388z"/><path fill="#E8E8E8" d="M227.726,388h-4.377v-7.853h4.377v0.812h-3.464v2.529h3.255v0.806h-3.255v2.89h3.464V388z"/><path fill="#E8E8E8" d="M233.844,388h-4.377v-7.853h4.377v0.812h-3.464v2.529h3.255v0.806h-3.255v2.89h3.464V388z"/><path fill="#E8E8E8" d="M238.001,388h-0.913v-7.041h-2.487v-0.812h5.887v0.812h-2.487V388z"/></g></g></svg>